<?xml version="1.0" standalone="no"?><!DOCTYPE svg PUBLIC "-//W3C//DTD SVG 1.1//EN" "http://www.w3.org/Graphics/SVG/1.1/DTD/svg11.dtd"><svg class="icon" width="256px" height="256.00px" viewBox="0 0 1024 1024" version="1.1" xmlns="http://www.w3.org/2000/svg"><path d="M850.53623 773.149706c-63.48774 118.714268-194.496252 214.921611-338.53623 214.921611-159.261424 0-300.027273-97.031296-355.31885-236.604583l-61.427857-189.899462L118.735951 314.186253l561.957565-12.099098 205.988227 37.403126 12.641172 327.109304-48.786685 106.550121z" fill="#FFD581" /><path d="M156.68115 404.539195h693.85508c0.108415 1.192563 0.195147 231.986109 0 368.610511 89.095329-72.724686 173.46377-223.833312 173.46377-333.007073 0-223.247872-229.232372-404.21395-512-404.21395S0 216.894761 0 440.142633c0 101.324525 78.66582 240.377419 156.68115 311.324101 0.151781-132.352856-0.065049-346.12527 0-346.927539z" fill="#414141" /><path d="M468.525643 532.035065c0 48.461441-16.457375 153.515436-219.323254 131.593953-84.303392-9.106848-87.729302-83.132512-87.729302-131.593953a309.459366 309.459366 0 0 1 307.052556 0z" fill="#556080" /><path d="M300.504298 688.260873c-16.825986 0-34.714437-1.0191-53.621987-3.078982-107.070512-11.557024-107.070512-114.421039-107.070512-153.146826v-12.576123l10.928217-6.244696a332.486681 332.486681 0 0 1 328.562063 0l10.928218 6.244696v12.576123c0 47.745903-15.199763 85.60437-45.187312 112.534621-32.394359 29.055181-80.877483 43.691187-144.538687 43.691187z m-117.153093-143.411172c1.626223 56.007115 15.199763 91.523822 68.192944 97.226443 77.798501 8.39131 133.11176-1.60454 164.48702-29.770719 18.17033-16.327277 28.16618-38.508957 30.35616-67.607504a289.099056 289.099056 0 0 0-263.036124 0.15178z" fill="#464F5D" /><path d="M543.483674 532.035065c0 48.461441 16.457375 153.515436 219.323254 131.593953 84.303392-9.106848 87.729302-83.132512 87.729302-131.593953a309.459366 309.459366 0 0 0-307.052556 0z" fill="#556080" /><path d="M711.526701 688.260873c-63.661204 0-112.122644-14.636006-144.517003-43.691187-29.987549-26.93025-45.208995-64.788718-45.208995-112.534621v-12.576123l10.928218-6.244696a332.55173 332.55173 0 0 1 328.562063 0l10.928217 6.244696v12.576123c0 38.725787 0 141.589802-107.070512 153.146826-18.929234 2.059882-36.817685 3.078982-53.621988 3.078982z m-145.904713-143.562952c2.18998 29.098547 12.18583 51.280227 30.35616 67.607504 31.375259 28.16618 86.731885 38.227078 164.508702 29.770719 52.993182-5.724304 66.566722-41.219328 68.192945-97.226443a289.164105 289.164105 0 0 0-263.057807-0.15178z" fill="#464F5D" /><path d="M226.131707 607.470122a21.661288 21.661288 0 0 1-15.329861-37.012832l48.483124-48.46144a21.661288 21.661288 0 1 1 30.659721 30.659721l-48.483123 48.461441a21.596239 21.596239 0 0 1-15.329861 6.35311zM290.768644 639.821115a21.661288 21.661288 0 0 1-15.32986-37.012831l80.812434-80.812434a21.661288 21.661288 0 1 1 30.659721 30.659721l-80.812434 80.812434a21.617922 21.617922 0 0 1-15.329861 6.35311zM608.142294 607.470122a21.661288 21.661288 0 0 1-15.32986-37.012832l48.483124-48.46144a21.661288 21.661288 0 1 1 30.659721 30.659721l-48.483124 48.461441a21.574556 21.574556 0 0 1-15.329861 6.35311zM672.779232 639.821115a21.661288 21.661288 0 0 1-15.329861-37.012831l80.812434-80.812434a21.661288 21.661288 0 1 1 30.659721 30.659721l-80.812434 80.812434a21.617922 21.617922 0 0 1-15.32986 6.35311z" fill="#8697CB" /><path d="M495.607674 901.122602c-39.506374 0-78.427307-14.917884-115.982213-44.580189a21.682971 21.682971 0 0 1 26.865201-34.042265c35.256511 27.840935 71.055097 39.376276 106.420023 33.93385 66.826917-10.060899 112.317791-75.131495 112.773133-75.781984a21.682971 21.682971 0 0 1 35.711854 24.610172c-2.276712 3.295812-56.831068 81.22441-142.023462 94.082412a159.413205 159.413205 0 0 1-23.764536 1.778004z" fill="#CB8252" /><path d="M664.171092 826.728328a21.596239 21.596239 0 0 1-12.9881-4.336595l-42.498623-31.89565a21.682971 21.682971 0 1 1 26.019565-34.671071l42.498624 31.89565a21.682971 21.682971 0 0 1-13.031466 39.007666zM366.615678 869.248634a21.682971 21.682971 0 0 1-13.031466-39.007665l42.498624-31.895651a21.682971 21.682971 0 1 1 26.019565 34.671071l-42.498623 31.895651a21.682971 21.682971 0 0 1-12.9881 4.336594z" fill="#CB8252" /><path d="M541.510524 180.358955l-37.403126-76.562572a21.639605 21.639605 0 0 0-28.990132-9.974166l-66.588405 32.524456c-0.411976 0.173464-0.867319 0.130098-1.279295 0.325245-0.411976 0.195147-0.650489 0.563757-1.040783 0.80227L168.845297 243.434718a21.661288 21.661288 0 0 0-9.952484 28.990133l37.403126 76.562571a21.682971 21.682971 0 1 0 38.942616-19.015966l-27.884301-57.091263 37.598272-18.365477 27.884301 57.069581a21.682971 21.682971 0 1 0 38.942617-19.015966l-27.884301-57.091263 49.307076-24.089781 31.180113 63.834667a21.682971 21.682971 0 1 0 38.942616-19.015966l-31.201795-63.85635 34.736119-16.977767 27.775887 56.831068a21.682971 21.682971 0 1 0 38.942616-19.059332l-27.754203-56.809384 28.773303-14.050566 27.884301 57.069581a21.617922 21.617922 0 0 0 28.990132 9.974166c10.841486-5.225596 15.308178-18.213696 10.039216-28.968449z" fill="#FFFFFF" /><path d="M460.242748 512.954051h86.731885v43.365942h-86.731885z" fill="#464F5D" /></svg>