<?xml version="1.0" standalone="no"?><!DOCTYPE svg PUBLIC "-//W3C//DTD SVG 1.1//EN" "http://www.w3.org/Graphics/SVG/1.1/DTD/svg11.dtd"><svg class="icon" width="256px" height="256.00px" viewBox="0 0 1024 1024" version="1.1" xmlns="http://www.w3.org/2000/svg"><path d="M512 0C260.042105 0 53.894737 206.147368 53.894737 458.105263V898.245614c0 39.522807 32.336842 71.859649 71.859649 71.859649h121.74821c74.734035 36.307088 165.941895 53.894737 264.497404 53.894737s189.763368-17.587649 264.497404-53.894737H898.245614c39.522807 0 71.859649-32.336842 71.859649-71.859649V458.105263C970.105263 206.147368 763.957895 0 512 0z" fill="#6E5847" /><path d="M69.506246 537.043088A458.374737 458.374737 0 0 0 53.894737 655.719298C53.894737 908.719158 259.00014 1024 512 1024S970.105263 908.719158 970.105263 655.719298C970.105263 410.354526 763.418947 209.488842 520.982456 197.614035h-17.964912c-242.436491 11.874807-449.122807 212.740491-449.122807 458.105263C53.894737 908.719158 259.00014 1024 512 1024S970.105263 908.719158 970.105263 655.719298" fill="#FDC794" /><path d="M336.357053 583.859649m-116.77193 0a116.77193 116.77193 0 1 0 233.543859 0 116.77193 116.77193 0 1 0-233.543859 0Z" fill="#D0E8F9" /><path d="M336.357053 718.596491c-74.302877 0-134.736842-60.433965-134.736842-134.736842s60.433965-134.736842 134.736842-134.736842 134.736842 60.433965 134.736842 134.736842-60.45193 134.736842-134.736842 134.736842z m0-233.543859c-54.469614 0-98.807018 44.337404-98.807018 98.807017s44.337404 98.807018 98.807018 98.807018 98.807018-44.337404 98.807017-98.807018-44.337404-98.807018-98.807017-98.807017z" fill="#556080" /><path d="M695.655298 583.859649m-116.77193 0a116.77193 116.77193 0 1 0 233.54386 0 116.77193 116.77193 0 1 0-233.54386 0Z" fill="#D0E8F9" /><path d="M695.655298 718.596491c-74.302877 0-134.736842-60.433965-134.736842-134.736842s60.433965-134.736842 134.736842-134.736842 134.736842 60.433965 134.736842 134.736842-60.45193 134.736842-134.736842 134.736842z m0-233.543859c-54.469614 0-98.807018 44.337404-98.807017 98.807017s44.337404 98.807018 98.807017 98.807018 98.807018-44.337404 98.807018-98.807018-44.337404-98.807018-98.807018-98.807017z" fill="#556080" /><path d="M596.848281 583.859649h-35.929825c0-24.773614-20.138667-44.912281-44.912281-44.912281s-44.912281 20.138667-44.91228 44.912281h-35.929825c0-44.570947 36.271158-80.842105 80.842105-80.842105s80.842105 36.271158 80.842106 80.842105z" fill="#556080" /><path d="M650.743018 916.210526a17.964912 17.964912 0 0 1-17.964913-17.964912c0-25.492211-88.531088-53.894737-215.578947-53.894737a17.964912 17.964912 0 1 1 0-35.929824c42.001965 0 251.508772 4.329544 251.508772 89.824561a17.964912 17.964912 0 0 1-17.964912 17.964912z" fill="#F9A671" /><path d="M453.111018 467.087719c-2.694737 0-5.443368-0.610807-8.012351-1.886315l-107.789474-53.894737a17.964912 17.964912 0 0 1 16.078596-32.139228l107.789474 53.894736A17.964912 17.964912 0 0 1 453.111018 467.087719zM578.901333 467.087719a17.964912 17.964912 0 0 1-8.066245-34.043508l107.789473-53.894737a17.964912 17.964912 0 0 1 16.078597 32.139228l-107.789474 53.894737a17.857123 17.857123 0 0 1-8.012351 1.90428z" fill="#6E5847" /><path d="M336.357053 583.859649m-44.912281 0a44.912281 44.912281 0 1 0 89.824561 0 44.912281 44.912281 0 1 0-89.824561 0Z" fill="#556080" /><path d="M695.655298 583.859649m-44.91228 0a44.912281 44.912281 0 1 0 89.824561 0 44.912281 44.912281 0 1 0-89.824561 0Z" fill="#556080" /></svg>