<?xml version="1.0" standalone="no"?><!DOCTYPE svg PUBLIC "-//W3C//DTD SVG 1.1//EN" "http://www.w3.org/Graphics/SVG/1.1/DTD/svg11.dtd"><svg class="icon" width="256px" height="256.00px" viewBox="0 0 1024 1024" version="1.1" xmlns="http://www.w3.org/2000/svg"><path d="M518.920828 971.016828c198.550069 2.754207 309.318621-77.34731 370.899862-162.23338 63.611586-87.675586 84.109241-199.20331 64.388413-305.840551C882.829241 117.265655 518.920828 120.514207 518.920828 120.514207S155.030069 117.265655 83.650207 502.960552c-19.738483 106.637241 0.776828 218.14731 64.388414 305.840551 61.563586 84.868414 172.332138 164.969931 370.882207 162.215725z" fill="#FDC794" /><path d="M79.430621 531.862069c-7.997793-7.574069-17.390345-12.129103-27.524414-12.129103-28.672 0-51.906207 34.957241-51.906207 78.106482 0 43.131586 23.234207 78.106483 51.888552 78.106483 12.129103 0 23.145931-6.532414 31.973517-17.019586a417.297655 417.297655 0 0 1-4.431448-127.064276zM1020.875034 464.295724c-9.939862-41.966345-40.606897-70.603034-68.484413-63.947034-8.66869 2.065655-15.854345 7.591724-21.627587 15.095172a570.968276 570.968276 0 0 1 23.446069 87.51669c2.736552 14.777379 4.608 29.643034 5.790897 44.526345 9.18069 5.014069 18.926345 7.097379 28.389517 4.837517 27.877517-6.656 42.425379-46.062345 32.485517-88.02869z" fill="#F9A671" /><path d="M245.406897 300.102621a17.602207 17.602207 0 0 1-12.482207-5.172966l-88.275862-88.275862a17.637517 17.637517 0 1 1 24.964413-24.964414l88.275862 88.275862a17.637517 17.637517 0 0 1-12.482206 30.13738zM298.390069 247.137103a17.655172 17.655172 0 0 1-15.819035-9.76331l-52.965517-105.931034a17.655172 17.655172 0 0 1 31.585104-15.80138l52.965517 105.931035a17.655172 17.655172 0 0 1-15.766069 25.564689zM368.993103 211.826759c-7.397517 0-14.283034-4.678621-16.754758-12.076138l-35.310345-105.931035a17.655172 17.655172 0 0 1 33.509517-11.158069l35.310345 105.931035a17.655172 17.655172 0 0 1-16.754759 23.234207zM457.25131 194.171586a17.655172 17.655172 0 0 1-17.390344-14.759724l-17.655173-105.931034a17.637517 17.637517 0 0 1 14.512552-20.303449 17.584552 17.584552 0 0 1 20.321103 14.512552l17.655173 105.931035a17.637517 17.637517 0 0 1-17.443311 20.55062zM527.889655 194.171586a17.655172 17.655172 0 0 1-17.655172-17.655172v-105.931035a17.655172 17.655172 0 1 1 35.310345 0v105.931035a17.655172 17.655172 0 0 1-17.655173 17.655172zM598.510345 194.171586a17.655172 17.655172 0 0 1-16.737104-23.251862l35.310345-105.931034a17.637517 17.637517 0 1 1 33.491862 11.175724l-35.310345 105.931034c-2.471724 7.397517-9.357241 12.076138-16.754758 12.076138zM669.131034 211.826759a17.655172 17.655172 0 0 1-16.737103-23.251862l35.310345-105.931035a17.637517 17.637517 0 1 1 33.491862 11.175724l-35.310345 105.931035c-2.471724 7.397517-9.357241 12.076138-16.754759 12.076138zM722.078897 247.137103a17.655172 17.655172 0 0 1-15.766069-25.547034l52.965517-105.931035a17.655172 17.655172 0 0 1 31.585103 15.80138l-52.965517 105.931034a17.655172 17.655172 0 0 1-15.819034 9.745655z" fill="#5E5F62" /><path d="M388.766897 858.482759a17.637517 17.637517 0 0 1-15.624828-25.811862c94.490483-181.318621 318.870069-251.921655 500.153379-157.413518 8.651034 4.502069 12.005517 15.165793 7.485793 23.816828a17.584552 17.584552 0 0 1-23.816827 7.503448 333.294345 333.294345 0 0 0-255.770483-22.580965 333.27669 333.27669 0 0 0-196.731586 165.005241c-3.177931 6.038069-9.339586 9.480828-15.695448 9.480828z" fill="#F9A671" /><path d="M812.137931 739.063172a17.655172 17.655172 0 1 1 0-35.310344c29.201655 0 52.965517-23.763862 52.965517-52.965518a17.655172 17.655172 0 1 1 35.310345 0c0 48.67531-39.600552 88.275862-88.275862 88.275862zM423.724138 880.304552c-48.67531 0-88.275862-39.600552-88.275862-88.275862a17.655172 17.655172 0 1 1 35.310345 0c0 29.201655 23.763862 52.965517 52.965517 52.965517a17.655172 17.655172 0 1 1 0 35.310345z" fill="#F9A671" /><path d="M281.494069 384.564966A105.224828 105.224828 0 0 0 264.827586 441.432276a105.860414 105.860414 0 1 0 210.36138 17.107862L282.482759 388.466759l-0.98869-3.901793zM723.862069 353.156414l-246.024828 105.436689c8.492138 69.896828 67.919448 124.080552 140.093793 124.080552a141.241379 141.241379 0 0 0 108.47338-231.653517l-2.542345 2.136276z" fill="#FFFFFF" /><path d="M475.188966 458.540138l1.500689 0.54731 1.147586-0.494345a140.994207 140.994207 0 0 1-1.147586-17.160827c0 5.843862-0.600276 11.528828-1.500689 17.107862z" fill="#F9A671" /><path d="M370.758621 335.501241a105.754483 105.754483 0 0 0-89.264552 49.063725l0.98869 3.901793 192.706207 70.073379c0.900414-5.579034 1.50069-11.264 1.500689-17.107862a105.931034 105.931034 0 0 0-105.931034-105.931035zM726.404414 351.020138A141.241379 141.241379 0 0 0 476.689655 441.432276c0 5.826207 0.459034 11.528828 1.147586 17.160827L723.862069 353.156414l2.542345-2.136276z" fill="#F9A671" /><path d="M388.413793 476.742621m-17.655172 0a17.655172 17.655172 0 1 0 35.310345 0 17.655172 17.655172 0 1 0-35.310345 0Z" fill="#7F5B53" /><path d="M573.793103 485.570207m-26.482758 0a26.482759 26.482759 0 1 0 52.965517 0 26.482759 26.482759 0 1 0-52.965517 0Z" fill="#7F5B53" /></svg>