<?xml version="1.0" standalone="no"?><!DOCTYPE svg PUBLIC "-//W3C//DTD SVG 1.1//EN" "http://www.w3.org/Graphics/SVG/1.1/DTD/svg11.dtd"><svg class="icon" width="256px" height="256.00px" viewBox="0 0 1024 1024" version="1.1" xmlns="http://www.w3.org/2000/svg"><path d="M512 0C260.042105 0 53.894737 206.147368 53.894737 458.105263V898.245614c0 39.522807 32.336842 71.859649 71.859649 71.859649h121.74821c74.734035 36.307088 165.941895 53.894737 264.497404 53.894737s189.763368-17.587649 264.497404-53.894737H898.245614c39.522807 0 71.859649-32.336842 71.859649-71.859649V458.105263C970.105263 206.147368 763.957895 0 512 0z" fill="#6E5847" /><path d="M69.506246 537.043088A458.374737 458.374737 0 0 0 53.894737 655.719298C53.894737 908.719158 259.00014 1024 512 1024S970.105263 908.719158 970.105263 655.719298C970.105263 410.354526 763.418947 209.488842 520.982456 197.614035h-17.964912c-242.436491 11.874807-449.122807 212.740491-449.122807 458.105263C53.894737 908.719158 259.00014 1024 512 1024S970.105263 908.719158 970.105263 655.719298" fill="#FDC794" /><path d="M314.385965 494.035088m-98.807018 0a98.807018 98.807018 0 1 0 197.614035 0 98.807018 98.807018 0 1 0-197.614035 0Z" fill="#FFFFFF" /><path d="M350.315789 529.964912m-44.91228 0a44.912281 44.912281 0 1 0 89.824561 0 44.912281 44.912281 0 1 0-89.824561 0Z" fill="#6E5847" /><path d="M709.614035 494.035088m-98.807017 0a98.807018 98.807018 0 1 0 197.614035 0 98.807018 98.807018 0 1 0-197.614035 0Z" fill="#FFFFFF" /><path d="M655.719298 512m-44.91228 0a44.912281 44.912281 0 1 0 89.824561 0 44.912281 44.912281 0 1 0-89.824561 0Z" fill="#6E5847" /><path d="M682.666667 907.22807a17.964912 17.964912 0 0 1-17.964913-17.964912c0-84.201544-68.500211-152.701754-152.701754-152.701754S359.298246 805.061614 359.298246 889.263158a17.964912 17.964912 0 1 1-35.929825 0C323.368421 785.246316 407.983158 700.631579 512 700.631579S700.631579 785.246316 700.631579 889.263158a17.964912 17.964912 0 0 1-17.964912 17.964912z" fill="#F9A671" /><path d="M449.122807 413.192982a17.911018 17.911018 0 0 1-12.701193-5.263719l-89.824561-89.824561a17.946947 17.946947 0 1 1 25.402386-25.402386l89.824561 89.824561A17.946947 17.946947 0 0 1 449.122807 413.192982zM574.877193 413.192982a17.946947 17.946947 0 0 1-12.701193-30.666105l89.824561-89.824561a17.946947 17.946947 0 1 1 25.402386 25.402386l-89.824561 89.824561A17.911018 17.911018 0 0 1 574.877193 413.192982z" fill="#6E5847" /></svg>