<?xml version="1.0" standalone="no"?><!DOCTYPE svg PUBLIC "-//W3C//DTD SVG 1.1//EN" "http://www.w3.org/Graphics/SVG/1.1/DTD/svg11.dtd"><svg class="icon" width="256px" height="256.00px" viewBox="0 0 1024 1024" version="1.1" xmlns="http://www.w3.org/2000/svg"><path d="M512 0C260.042105 0 53.894737 206.147368 53.894737 458.105263V898.245614c0 39.522807 32.336842 71.859649 71.859649 71.859649h121.74821c74.734035 36.307088 165.941895 53.894737 264.497404 53.894737s189.763368-17.587649 264.497404-53.894737H898.245614c39.522807 0 71.859649-32.336842 71.859649-71.859649V458.105263C970.105263 206.147368 763.957895 0 512 0z" fill="#6E5847" /><path d="M69.506246 537.043088A458.374737 458.374737 0 0 0 53.894737 655.719298C53.894737 908.719158 259.00014 1024 512 1024S970.105263 908.719158 970.105263 655.719298C970.105263 410.354526 763.418947 209.488842 520.982456 197.614035h-17.964912c-242.436491 11.874807-449.122807 212.740491-449.122807 458.105263C53.894737 908.719158 259.00014 1024 512 1024S970.105263 908.719158 970.105263 655.719298" fill="#FDC794" /><path d="M466.333193 799.887719l-13.761123-27.50428a28.115088 28.115088 0 0 1 5.12-32.444632c15.593544-15.719298 42.433123-41.427088 71.554246-63.254456a116.161123 116.161123 0 0 0-75.308912-9.503439c-47.481263 9.754947-84.938105 49.601123-91.567158 97.639299a116.825825 116.825825 0 0 0 118.209122 133.407438c45.954246-0.98807 86.770526-31.115228 105.004913-73.314807 11.012491-25.510175 11.048421-49.385544 5.730807-71.176982-20.677614 17.246316-48.343579 36.540632-85.351299 57.936842-14.138386 8.15607-32.336842 2.784561-39.630596-11.784983z" fill="#8697CB" /><path d="M314.385965 494.035088m-98.807018 0a98.807018 98.807018 0 1 0 197.614035 0 98.807018 98.807018 0 1 0-197.614035 0Z" fill="#FFFFFF" /><path d="M359.298246 494.035088m-62.877193 0a62.877193 62.877193 0 1 0 125.754386 0 62.877193 62.877193 0 1 0-125.754386 0Z" fill="#6E5847" /><path d="M691.649123 494.035088m-98.807018 0a98.807018 98.807018 0 1 0 197.614035 0 98.807018 98.807018 0 1 0-197.614035 0Z" fill="#FFFFFF" /><path d="M736.561404 494.035088m-62.877193 0a62.877193 62.877193 0 1 0 125.754385 0 62.877193 62.877193 0 1 0-125.754385 0Z" fill="#6E5847" /><path d="M641.419228 674.295018c-10.599298-24.809544-34.923789-41.463018-60.541754-41.463018-11.731088 0-23.102877 3.305544-33.774035 9.826807-57.631439 35.211228-108.023018 97.998596-110.124913 100.675368a17.946947 17.946947 0 0 0-0.898245 21.162667l35.929824 53.894737a17.946947 17.946947 0 0 0 23.480141 5.838596c16.976842-9.18007 31.851789-16.922947 45.002105-23.767579 42.01993-21.899228 67.386386-35.103439 88.046035-56.715228 18.432-19.276351 23.246596-45.235649 12.880842-69.45235z" fill="#7D6599" /></svg>