<?xml version="1.0" standalone="no"?><!DOCTYPE svg PUBLIC "-//W3C//DTD SVG 1.1//EN" "http://www.w3.org/Graphics/SVG/1.1/DTD/svg11.dtd"><svg class="icon" width="256px" height="256.00px" viewBox="0 0 1024 1024" version="1.1" xmlns="http://www.w3.org/2000/svg"><path d="M905.846154 449.28H137.846154l46.060308-315.076923c0.531692-3.918769 1.260308-7.739077 2.185846-11.500308 14.966154-60.947692 82.924308-92.672 141.981538-71.424l148.322462 53.405539a109.568 109.568 0 0 0 71.542154 0.94523l172.091076-56.851692c42.456615-14.020923 90.88-2.244923 118.055385 33.240616a110.08 110.08 0 0 1 21.700923 52.164923L905.846154 449.28z" fill="#556080" /><path d="M157.991385 311.433846h727.709538l-5.769846-39.384615H163.761231z" fill="#8697CB" /><path d="M925.538462 488.664615c-5.612308-31.783385-19.692308-39.384615-19.692308-39.384615H137.846154s-14.060308 7.483077-19.692308 39.384615c-32.748308 13.016615-59.076923 51.239385-59.076923 88.615385 0 38.951385 25.284923 71.660308 60.219077 83.534769C161.673846 844.150154 325.632 980.972308 521.846154 980.972308s360.172308-136.822154 402.550154-320.157539C959.330462 648.940308 984.615385 616.211692 984.615385 577.28c0-37.395692-26.328615-75.598769-59.076923-88.615385z" fill="#FFD581" /><path d="M1004.307692 468.972308H19.692308a19.692308 19.692308 0 1 1 0-39.384616h984.615384a19.692308 19.692308 0 1 1 0 39.384616z" fill="#3D324C" /><path d="M372.657231 684.681846m-96.964923 0a96.964923 96.964923 0 1 0 193.929846 0 96.964923 96.964923 0 1 0-193.929846 0Z" fill="#D0E8F9" /><path d="M372.657231 801.358769c-64.334769 0-116.657231-52.342154-116.657231-116.676923s52.322462-116.657231 116.657231-116.657231 116.676923 52.322462 116.676923 116.657231-52.361846 116.676923-116.676923 116.676923z m0-193.949538c-42.614154 0-77.272615 34.658462-77.272616 77.272615s34.658462 77.292308 77.272616 77.292308 77.292308-34.678154 77.292307-77.292308-34.678154-77.272615-77.292307-77.272615z" fill="#556080" /><path d="M671.035077 684.681846m-96.964923 0a96.964923 96.964923 0 1 0 193.929846 0 96.964923 96.964923 0 1 0-193.929846 0Z" fill="#D0E8F9" /><path d="M671.035077 801.358769c-64.334769 0-116.676923-52.342154-116.676923-116.676923s52.342154-116.657231 116.676923-116.657231S787.692308 620.347077 787.692308 684.681846s-52.322462 116.676923-116.657231 116.676923z m0-193.949538c-42.614154 0-77.292308 34.658462-77.292308 77.272615s34.678154 77.292308 77.292308 77.292308S748.307692 727.296 748.307692 684.681846s-34.658462-77.272615-77.272615-77.272615z" fill="#556080" /><path d="M593.742769 684.681846h-39.384615c0-17.92-14.592-32.512-32.512-32.512s-32.512 14.592-32.512 32.512h-39.384616c0-39.660308 32.256-71.896615 71.896616-71.896615s71.896615 32.236308 71.896615 71.896615z" fill="#556080" /><path d="M614.045538 920.694154a19.692308 19.692308 0 0 1-19.692307-19.692308c0-13.961846-59.844923-39.975385-174.257231-39.975384a19.692308 19.692308 0 1 1 0-39.384616c35.682462 0 213.641846 3.820308 213.641846 79.36a19.692308 19.692308 0 0 1-19.692308 19.692308z" fill="#CB8252" /><path d="M469.622154 567.433846c-2.953846 0-5.966769-0.669538-8.782769-2.067692l-89.521231-44.740923a19.692308 19.692308 0 0 1 17.624615-35.229539l89.521231 44.740923a19.692308 19.692308 0 0 1-8.841846 37.297231zM574.070154 567.433846a19.692308 19.692308 0 0 1-8.841846-37.316923l89.52123-44.740923a19.692308 19.692308 0 0 1 17.624616 35.229538l-89.521231 44.740924a19.692308 19.692308 0 0 1-8.782769 2.087384z" fill="#414141" /></svg>