<?xml version="1.0" standalone="no"?><!DOCTYPE svg PUBLIC "-//W3C//DTD SVG 1.1//EN" "http://www.w3.org/Graphics/SVG/1.1/DTD/svg11.dtd"><svg class="icon" width="256px" height="256.00px" viewBox="0 0 1024 1024" version="1.1" xmlns="http://www.w3.org/2000/svg"><path d="M905.846154 455.325538H137.846154L183.906462 124.987077A110.355692 110.355692 0 0 1 293.257846 29.538462h457.176616a110.355692 110.355692 0 0 1 109.351384 95.448615L905.846154 455.325538z" fill="#556080" /><path d="M881.132308 278.094769H162.56l-5.395692 38.734769c1.083077 0.177231 2.067692 0.649846 3.190154 0.649847h723.003076c1.122462 0 2.107077-0.452923 3.190154-0.649847l-5.415384-38.734769zM892.120615 356.864H151.571692l-5.395692 38.695385c1.161846 0.216615 2.205538 0.689231 3.426462 0.68923h744.487384c1.220923 0 2.264615-0.472615 3.426462-0.68923l-5.395693-38.695385z" fill="#8697CB" /><path d="M984.615385 590.769231c0-37.376-26.328615-75.598769-59.076923-88.615385-5.454769-30.857846-19.692308-46.828308-19.692308-46.828308H137.846154s-14.237538 15.970462-19.692308 46.828308c-32.748308 13.016615-59.076923 51.239385-59.076923 88.615385 0 38.951385 25.284923 71.660308 60.219077 83.534769C161.673846 857.639385 325.632 994.461538 521.846154 994.461538s360.172308-136.802462 402.550154-320.157538C959.330462 662.429538 984.615385 629.720615 984.615385 590.769231z" fill="#FFD581" /><path d="M374.153846 620.307692m-39.384615 0a39.384615 39.384615 0 1 0 78.769231 0 39.384615 39.384615 0 1 0-78.769231 0Z" fill="#414141" /><path d="M669.538462 620.307692m-39.384616 0a39.384615 39.384615 0 1 0 78.769231 0 39.384615 39.384615 0 1 0-78.769231 0Z" fill="#414141" /><path d="M531.003077 731.746462A177.132308 177.132308 0 0 0 295.384615 817.230769a177.152 177.152 0 0 0 235.618462-85.484307zM531.692308 731.746462A177.152 177.152 0 0 1 767.310769 817.230769 177.132308 177.132308 0 0 1 531.692308 731.746462z" fill="#414141" /><path d="M1004.307692 475.017846H19.692308a19.692308 19.692308 0 1 1 0-39.384615h984.615384a19.692308 19.692308 0 1 1 0 39.384615z" fill="#3D324C" /></svg>