<?xml version="1.0" standalone="no"?><!DOCTYPE svg PUBLIC "-//W3C//DTD SVG 1.1//EN" "http://www.w3.org/Graphics/SVG/1.1/DTD/svg11.dtd"><svg class="icon" width="256px" height="256.00px" viewBox="0 0 1024 1024" version="1.1" xmlns="http://www.w3.org/2000/svg"><path d="M518.920828 971.016828c198.550069 2.754207 309.318621-77.34731 370.899862-162.23338 63.611586-87.675586 84.109241-199.20331 64.388413-305.840551C882.829241 117.265655 518.920828 120.514207 518.920828 120.514207S155.030069 117.265655 83.650207 502.960552c-19.738483 106.637241 0.776828 218.14731 64.388414 305.840551 61.563586 84.868414 172.332138 164.969931 370.882207 162.215725z" fill="#FDC794" /><path d="M776.545103 555.537655a36.281379 36.281379 0 0 1-36.775724-35.592827c-0.335448-19.897379 34.727724-73.233655 34.992552-72.951173 0 0 37.040552 51.870897 37.376 71.768276a36.31669 36.31669 0 0 1-35.592828 36.775724zM266.292966 635.550897A36.281379 36.281379 0 0 1 229.517241 599.958069c-0.335448-19.897379 34.727724-73.233655 34.992552-72.951172 0 0 37.040552 51.870897 37.376 71.768275a36.299034 36.299034 0 0 1-35.592827 36.775725z" fill="#0096E6" /><path d="M79.430621 531.862069c-7.997793-7.574069-17.390345-12.129103-27.524414-12.129103-28.672 0-51.906207 34.957241-51.906207 78.106482 0 43.131586 23.234207 78.106483 51.888552 78.106483 12.129103 0 23.145931-6.532414 31.973517-17.019586a417.31531 417.31531 0 0 1-4.431448-127.064276zM1020.875034 464.295724c-9.939862-41.966345-40.606897-70.603034-68.484413-63.947034-8.66869 2.065655-15.854345 7.591724-21.627587 15.095172a570.968276 570.968276 0 0 1 23.446069 87.51669c2.736552 14.777379 4.608 29.643034 5.790897 44.526345 9.18069 5.014069 18.926345 7.097379 28.389517 4.837517 27.877517-6.656 42.425379-46.062345 32.485517-88.02869z" fill="#F9A671" /><path d="M245.406897 300.102621a17.602207 17.602207 0 0 1-12.482207-5.172966l-88.275862-88.275862a17.637517 17.637517 0 1 1 24.964413-24.964414l88.275862 88.275862a17.637517 17.637517 0 0 1-12.482206 30.13738zM298.390069 247.137103a17.655172 17.655172 0 0 1-15.819035-9.76331l-52.965517-105.931034a17.655172 17.655172 0 0 1 31.585104-15.80138l52.965517 105.931035a17.655172 17.655172 0 0 1-15.766069 25.564689zM368.993103 211.826759c-7.397517 0-14.283034-4.678621-16.754758-12.076138l-35.310345-105.931035a17.655172 17.655172 0 0 1 33.509517-11.158069l35.310345 105.931035a17.655172 17.655172 0 0 1-16.754759 23.234207zM457.25131 194.171586a17.655172 17.655172 0 0 1-17.390344-14.759724l-17.655173-105.931034a17.637517 17.637517 0 0 1 14.512552-20.303449 17.566897 17.566897 0 0 1 20.321103 14.512552l17.655173 105.931035a17.637517 17.637517 0 0 1-17.443311 20.55062zM527.889655 194.171586a17.655172 17.655172 0 0 1-17.655172-17.655172v-105.931035a17.655172 17.655172 0 1 1 35.310345 0v105.931035a17.655172 17.655172 0 0 1-17.655173 17.655172zM598.510345 194.171586a17.655172 17.655172 0 0 1-16.737104-23.251862l35.310345-105.931034a17.637517 17.637517 0 1 1 33.491862 11.175724l-35.310345 105.931034a17.655172 17.655172 0 0 1-16.754758 12.076138zM669.131034 211.826759a17.655172 17.655172 0 0 1-16.737103-23.251862l35.310345-105.931035a17.637517 17.637517 0 1 1 33.491862 11.175724l-35.310345 105.931035a17.655172 17.655172 0 0 1-16.754759 12.076138zM722.078897 247.137103a17.655172 17.655172 0 0 1-15.766069-25.547034l52.965517-105.931035a17.655172 17.655172 0 1 1 31.585103 15.80138l-52.965517 105.931034a17.655172 17.655172 0 0 1-15.819034 9.745655z" fill="#5E5F62" /><path d="M423.706483 891.833379a17.637517 17.637517 0 0 1-14.212414-28.089379c58.473931-79.642483 167.300414-132.713931 247.649103-120.549517 41.260138 6.17931 70.885517 29.307586 83.38538 65.129931a17.655172 17.655172 0 0 1-33.315311 11.652414c-8.209655-23.534345-26.818207-37.623172-55.278344-41.878069-67.442759-9.939862-163.416276 37.711448-213.963035 106.53131-3.478069 4.696276-8.827586 7.20331-14.265379 7.20331zM556.155586 700.45131c-32.203034 0-65.412414-17.496276-88.946758-47.510069a43.255172 43.255172 0 0 1-2.206897-3.195586c-5.12-8.033103-3.442759-19.438345 4.413793-24.805517 7.856552-5.367172 18.078897-4.290207 23.710897 3.372138 0.582621 0.812138 1.129931 1.624276 1.659586 2.454069 18.926345 24.258207 45.038345 36.934621 68.325517 33.915586 20.126897-2.754207 36.140138-17.178483 46.309517-41.666207a111.827862 111.827862 0 0 0-4.449103-94.75531c-13.665103-26.200276-36.104828-45.003034-60.009931-50.281931a53.318621 53.318621 0 0 0-39.247448 6.302896 17.655172 17.655172 0 0 1-17.761104-30.508138 88.54069 88.54069 0 0 1 64.600276-10.27531c34.003862 7.485793 65.306483 33.068138 83.738483 68.449103a147.067586 147.067586 0 0 1 5.755586 124.592552c-15.024552 36.246069-41.366069 58.650483-74.151724 63.134897-3.884138 0.529655-7.803586 0.776828-11.74069 0.776827zM294.470621 494.344828a123.091862 123.091862 0 0 1-55.190069-13.117794 17.655172 17.655172 0 0 1 15.801379-31.585103 87.640276 87.640276 0 0 0 67.407448 4.802207 87.693241 87.693241 0 0 0 51.023449-44.296828 17.655172 17.655172 0 0 1 31.585103 15.80138 122.791724 122.791724 0 0 1-71.450483 62.004965 123.851034 123.851034 0 0 1-39.176827 6.391173zM730.535724 411.630345a123.745103 123.745103 0 0 1-110.750896-68.307862 17.655172 17.655172 0 0 1 31.585103-15.80138 88.381793 88.381793 0 0 0 118.430897 39.476966 17.672828 17.672828 0 0 1 15.801379 31.585103 122.84469 122.84469 0 0 1-55.066483 13.047173z" fill="#F9A671" /></svg>