<?xml version="1.0" standalone="no"?><!DOCTYPE svg PUBLIC "-//W3C//DTD SVG 1.1//EN" "http://www.w3.org/Graphics/SVG/1.1/DTD/svg11.dtd"><svg class="icon" width="256px" height="256.00px" viewBox="0 0 1024 1024" version="1.1" xmlns="http://www.w3.org/2000/svg"><path d="M958.638298 428.380596c-37.909787-214.451745-221.314723-370.382979-446.638298-370.382979S103.271489 213.928851 65.361702 428.380596c-36.23217 14.401362-65.361702 56.690383-65.361702 98.042553 0 43.095149 27.974809 79.283745 66.625362 92.421447C113.511489 821.705532 294.912 973.061447 512 973.061447c217.109787 0 398.488511-151.377702 445.374638-354.216851v0.021787C996.025191 605.706894 1024 569.518298 1024 526.423149c0-41.35217-29.129532-83.641191-65.361702-98.042553z" fill="#FFD581" /><path d="M958.638298 428.380596v0.021787C920.728511 213.972426 733.881191 50.938553 508.557617 50.938553S103.271489 213.928851 65.361702 428.380596c0 0 368.334979 94.338723 615.315064-102.966468 12.091915-9.673532 29.674213-7.40766 38.301957 5.446808 44.642043 66.494638 126.976 147.194553 239.659575 97.51966z" fill="#414141" /><path d="M372.779574 703.531574c-79.63234 0-133.12-46.036426-133.12-114.557276a109.873021 109.873021 0 0 1 109.742298-109.764085 91.37566 91.37566 0 0 1 91.288511 91.266723 76.8 76.8 0 0 1-76.712851 76.712851 65.230979 65.230979 0 0 1-65.14383-65.165617 56.102128 56.102128 0 0 1 56.036766-56.036766 21.787234 21.787234 0 1 1 0 43.574468 12.484085 12.484085 0 0 0-12.462298 12.462298c0 11.917617 9.673532 21.591149 21.569362 21.591149 18.279489 0 33.138383-14.858894 33.138383-33.138383a47.757617 47.757617 0 0 0-47.714043-47.692255A66.233191 66.233191 0 0 0 283.234043 588.974298c0 52.332936 46.254298 70.982809 89.545531 70.982808 72.31183 0 83.118298-63.030468 83.118298-100.591659a21.787234 21.787234 0 1 1 43.574468 0c0.021787 88.935489-48.541957 144.166128-126.692766 144.166127zM704.424851 674.489191a91.37566 91.37566 0 0 1-91.288511-91.266723c0-42.267234 34.402043-76.691064 76.712851-76.691064a65.230979 65.230979 0 0 1 65.14383 65.14383 56.102128 56.102128 0 0 1-56.036766 56.036766 21.787234 21.787234 0 1 1 0-43.574468 12.484085 12.484085 0 0 0 12.462298-12.462298 21.591149 21.591149 0 0 0-21.569362-21.569362c-18.279489 0-33.138383 14.858894-33.138382 33.116596 0 26.297191 21.395064 47.692255 47.714042 47.692255a66.233191 66.233191 0 0 0 66.16783-66.167829c0-52.332936-46.254298-71.004596-89.545532-71.004596-72.31183 0-83.118298 63.030468-83.118298 100.591659a21.787234 21.787234 0 1 1-43.574468 0c0-88.935489 48.563745-144.166128 126.692766-144.166127 79.63234 0 133.12 46.036426 133.12 114.579064a109.873021 109.873021 0 0 1-109.742298 109.742297z" fill="#E2B769" /><path d="M534.506213 842.403404c-42.37617-92.312511 64.010894-96.974979 105.384851-89.153361 17.887319 3.377021 14.989617 8.453447 24.641362 29.478127 9.651745 21.024681 15.381787 22.157617 6.29651 37.909787-21.046468 36.428255-93.946553 114.05617-136.322723 21.765447z" fill="#802D40" /></svg>