<?xml version="1.0" standalone="no"?><!DOCTYPE svg PUBLIC "-//W3C//DTD SVG 1.1//EN" "http://www.w3.org/Graphics/SVG/1.1/DTD/svg11.dtd"><svg class="icon" width="256px" height="256.00px" viewBox="0 0 1024 1024" version="1.1" xmlns="http://www.w3.org/2000/svg"><path d="M512 0C260.042105 0 53.894737 206.147368 53.894737 458.105263V898.245614c0 39.522807 32.336842 71.859649 71.859649 71.859649h121.74821c74.734035 36.307088 165.941895 53.894737 264.497404 53.894737s189.763368-17.587649 264.497404-53.894737H898.245614c39.522807 0 71.859649-32.336842 71.859649-71.859649V458.105263C970.105263 206.147368 763.957895 0 512 0z" fill="#6E5847" /><path d="M69.506246 537.043088A458.374737 458.374737 0 0 0 53.894737 655.719298C53.894737 908.719158 259.00014 1024 512 1024S970.105263 908.719158 970.105263 655.719298C970.105263 410.354526 763.418947 209.488842 520.982456 197.614035h-17.964912c-242.436491 11.874807-449.122807 212.740491-449.122807 458.105263C53.894737 908.719158 259.00014 1024 512 1024S970.105263 908.719158 970.105263 655.719298" fill="#FDC794" /><path d="M242.795789 592.842105a17.946947 17.946947 0 0 1-12.701193-30.666105l152.432281-152.432281a17.946947 17.946947 0 1 1 25.402386 25.402386l-152.432281 152.432281a17.946947 17.946947 0 0 1-12.701193 5.263719z" fill="#F9A671" /><path d="M395.22807 592.842105a17.911018 17.911018 0 0 1-12.701193-5.263719l-152.432281-152.432281a17.946947 17.946947 0 1 1 25.402386-25.402386l152.432281 152.432281A17.946947 17.946947 0 0 1 395.22807 592.842105zM638.02386 592.842105a17.946947 17.946947 0 0 1-12.701193-30.666105l152.43228-152.432281a17.946947 17.946947 0 1 1 25.402386 25.402386l-152.43228 152.432281a17.946947 17.946947 0 0 1-12.701193 5.263719z" fill="#F9A671" /><path d="M790.45614 592.842105a17.911018 17.911018 0 0 1-12.701193-5.263719l-152.43228-152.432281a17.946947 17.946947 0 1 1 25.402386-25.402386l152.43228 152.432281A17.946947 17.946947 0 0 1 790.45614 592.842105zM700.631579 916.210526a17.964912 17.964912 0 0 1-17.964912-17.964912c0-99.058526-80.590596-179.649123-179.649123-179.649123s-179.649123 80.590596-179.649123 179.649123a17.964912 17.964912 0 1 1-35.929825 0c0-118.873825 96.705123-215.578947 215.578948-215.578947s215.578947 96.705123 215.578947 215.578947a17.964912 17.964912 0 0 1-17.964912 17.964912z" fill="#F9A671" /></svg>