<?xml version="1.0" standalone="no"?><!DOCTYPE svg PUBLIC "-//W3C//DTD SVG 1.1//EN" "http://www.w3.org/Graphics/SVG/1.1/DTD/svg11.dtd"><svg class="icon" width="256px" height="256.00px" viewBox="0 0 1024 1024" version="1.1" xmlns="http://www.w3.org/2000/svg"><path d="M1024 493.742298c0-41.35217-29.129532-83.641191-65.361702-98.042553-37.909787-214.451745-221.314723-370.382979-446.638298-370.382979S103.271489 181.248 65.361702 395.699745c-36.23217 14.401362-65.361702 56.690383-65.361702 98.042553 0 43.095149 27.974809 79.283745 66.625362 92.421447C113.511489 789.024681 294.912 940.380596 512 940.380596c11.89583 0 23.639149-0.63183 35.317106-1.525107a86.342809 86.342809 0 0 1-2.636255-20.262127v-169.962213c39.478468 0 158.872511 0.457532 196.085106 0v130.178723c107.781447-62.551149 187.740596-167.761702 216.608681-292.646127C996.025191 573.026043 1024 536.837447 1024 493.742298z" fill="#FFD581" /><path d="M261.446809 635.359319a21.765447 21.765447 0 0 1-15.403575-37.190808l112.095319-112.117107a21.765447 21.765447 0 1 1 30.807149 30.807149l-112.095319 112.117107a21.634723 21.634723 0 0 1-15.403574 6.383659z" fill="#B27821" /><path d="M373.542128 635.359319a21.721872 21.721872 0 0 1-15.403575-6.383659l-112.095319-112.117107a21.765447 21.765447 0 1 1 30.807149-30.807149l112.095319 112.117107a21.765447 21.765447 0 0 1-15.403574 37.190808zM675.404255 635.359319a21.765447 21.765447 0 0 1-15.403574-37.190808l112.095319-112.117107a21.765447 21.765447 0 1 1 30.807149 30.807149l-112.095319 112.117107a21.634723 21.634723 0 0 1-15.403575 6.383659z" fill="#B27821" /><path d="M787.499574 635.359319a21.721872 21.721872 0 0 1-15.403574-6.383659l-112.095319-112.117107a21.765447 21.765447 0 1 1 30.807149-30.807149l112.095319 112.117107a21.765447 21.765447 0 0 1-15.403575 37.190808z" fill="#B27821" /><path d="M958.638298 395.699745v0.021787C920.728511 181.291574 733.881191 18.257702 508.557617 18.257702S103.271489 181.248 65.361702 395.699745c0 0 368.334979 94.338723 615.315064-102.966468 12.091915-9.673532 29.674213-7.40766 38.301957 5.446808 44.642043 66.494638 126.976 147.194553 239.659575 97.51966z" fill="#9D6019" /><path d="M544.680851 748.631149v169.962213c0 47.931915 39.217021 87.148936 87.148936 87.148936h21.787234c47.931915 0 87.148936-39.217021 87.148936-87.148936v-169.962213c-37.212596 0.457532-156.606638 0-196.085106 0z" fill="#FB7B76" /><path d="M643.442383 918.593362a21.787234 21.787234 0 0 1-21.787234-21.787234v-3.594894c0.021787-55.797106-1.546894-90.286298-4.662468-102.683234A21.787234 21.787234 0 0 1 631.829787 752.792511c28.127319 0 30.240681 36.384681 31.940085 65.623149 1.481532 25.578213 1.481532 55.208851 1.459745 74.839149v3.573106a21.787234 21.787234 0 0 1-21.787234 21.765447z" fill="#E64C3C" /><path d="M762.553191 770.44017H283.234043a21.787234 21.787234 0 1 1 0-43.574468h479.319148a21.787234 21.787234 0 1 1 0 43.574468z" fill="#CB8252" /></svg>