<?xml version="1.0" standalone="no"?><!DOCTYPE svg PUBLIC "-//W3C//DTD SVG 1.1//EN" "http://www.w3.org/Graphics/SVG/1.1/DTD/svg11.dtd"><svg class="icon" width="256px" height="256.00px" viewBox="0 0 1024 1024" version="1.1" xmlns="http://www.w3.org/2000/svg"><path d="M512 512m-512 0a512 512 0 1 0 1024 0 512 512 0 1 0-1024 0Z" fill="#FBD971" /><path d="M243.809524 828.952381c0-148.114286 120.07619-268.190476 268.190476-268.190476s268.190476 120.07619 268.190476 268.190476" fill="#C03A2B" /><path d="M243.809524 828.952381c0-67.31581 120.07619-121.904762 268.190476-121.904762s268.190476 54.588952 268.190476 121.904762" fill="#E64C3C" /><path d="M780.166095 512a24.30781 24.30781 0 0 1-15.603809-5.656381l-146.285715-121.904762a24.429714 24.429714 0 0 1 0-37.449143l146.285715-121.904762a24.380952 24.380952 0 0 1 31.232 37.449143L672.01219 365.714286l123.806477 103.18019A24.380952 24.380952 0 0 1 780.166095 512zM243.833905 512a24.380952 24.380952 0 0 1-15.652572-43.105524L352.01219 365.714286 228.205714 262.534095a24.380952 24.380952 0 1 1 31.207619-37.449143l146.285715 121.904762a24.380952 24.380952 0 0 1 0.024381 37.449143l-146.285715 121.904762a24.30781 24.30781 0 0 1-15.603809 5.656381z" fill="#F29C1F" /></svg>