<?xml version="1.0" standalone="no"?><!DOCTYPE svg PUBLIC "-//W3C//DTD SVG 1.1//EN" "http://www.w3.org/Graphics/SVG/1.1/DTD/svg11.dtd"><svg class="icon" width="256px" height="256.00px" viewBox="0 0 1024 1024" version="1.1" xmlns="http://www.w3.org/2000/svg"><path d="M518.920828 971.016828c198.550069 2.754207 309.318621-77.34731 370.899862-162.23338 63.611586-87.675586 84.109241-199.20331 64.388413-305.840551C882.829241 117.265655 518.920828 120.514207 518.920828 120.514207S155.030069 117.265655 83.650207 502.960552c-19.738483 106.637241 0.776828 218.14731 64.388414 305.840551 61.563586 84.868414 172.332138 164.969931 370.882207 162.215725z" fill="#FDC794" /><path d="M494.344828 370.970483l-192.706207 70.073379A105.860414 105.860414 0 0 0 512 423.936a105.189517 105.189517 0 0 0-15.677793-55.243034l-1.977379 2.277517z" fill="#FFFFFF" /><path d="M532.656552 350.667034a140.429241 140.429241 0 0 0-20.656552 73.268966 141.241379 141.241379 0 0 0 141.241379 141.241379c74.78731 0 135.838897-58.173793 140.76469-131.707586L547.310345 350.667034h-14.653793z" fill="#FFFFFF" /><path d="M496.322207 368.692966A105.754483 105.754483 0 0 0 406.068966 318.004966a105.931034 105.931034 0 0 0-105.931035 105.931034c0 5.843862 0.600276 11.528828 1.50069 17.107862L494.344828 370.970483l1.977379-2.277517zM653.241379 282.694621c-51.129379 0-95.77931 27.259586-120.584827 67.954758H547.310345l246.695724 82.802759c0.211862-3.142621 0.47669-6.302897 0.47669-9.516138a141.241379 141.241379 0 0 0-141.24138-141.241379zM79.430621 531.862069c-7.997793-7.574069-17.390345-12.129103-27.524414-12.129103-28.672 0-51.906207 34.957241-51.906207 78.106482 0 43.131586 23.234207 78.106483 51.888552 78.106483 12.129103 0 23.145931-6.532414 31.973517-17.019586a417.31531 417.31531 0 0 1-4.431448-127.064276zM1020.875034 464.295724c-9.939862-41.966345-40.606897-70.603034-68.484413-63.947034-8.66869 2.065655-15.854345 7.591724-21.627587 15.095172a570.968276 570.968276 0 0 1 23.446069 87.51669c2.736552 14.777379 4.608 29.643034 5.790897 44.526345 9.18069 5.014069 18.926345 7.097379 28.389517 4.837517 27.877517-6.656 42.425379-46.062345 32.485517-88.02869z" fill="#F9A671" /><path d="M245.406897 300.102621a17.602207 17.602207 0 0 1-12.482207-5.172966l-88.275862-88.275862a17.637517 17.637517 0 1 1 24.964413-24.964414l88.275862 88.275862a17.637517 17.637517 0 0 1-12.482206 30.13738zM298.390069 247.137103a17.655172 17.655172 0 0 1-15.819035-9.76331l-52.965517-105.931034a17.655172 17.655172 0 0 1 31.585104-15.80138l52.965517 105.931035a17.655172 17.655172 0 0 1-15.766069 25.564689zM368.993103 211.826759c-7.397517 0-14.283034-4.678621-16.754758-12.076138l-35.310345-105.931035a17.655172 17.655172 0 0 1 33.509517-11.158069l35.310345 105.931035a17.655172 17.655172 0 0 1-16.754759 23.234207zM457.25131 194.171586a17.655172 17.655172 0 0 1-17.390344-14.759724l-17.655173-105.931034a17.637517 17.637517 0 0 1 14.512552-20.303449 17.584552 17.584552 0 0 1 20.321103 14.512552l17.655173 105.931035a17.637517 17.637517 0 0 1-17.443311 20.55062zM527.889655 194.171586a17.655172 17.655172 0 0 1-17.655172-17.655172v-105.931035a17.655172 17.655172 0 1 1 35.310345 0v105.931035a17.655172 17.655172 0 0 1-17.655173 17.655172zM598.510345 194.171586a17.655172 17.655172 0 0 1-16.737104-23.251862l35.310345-105.931034a17.637517 17.637517 0 1 1 33.491862 11.175724l-35.310345 105.931034a17.655172 17.655172 0 0 1-16.754758 12.076138zM669.131034 211.826759a17.655172 17.655172 0 0 1-16.737103-23.251862l35.310345-105.931035a17.637517 17.637517 0 1 1 33.491862 11.175724l-35.310345 105.931035a17.655172 17.655172 0 0 1-16.754759 12.076138zM722.078897 247.137103a17.655172 17.655172 0 0 1-15.766069-25.547034l52.965517-105.931035a17.655172 17.655172 0 1 1 31.585103 15.80138l-52.965517 105.931034a17.655172 17.655172 0 0 1-15.819034 9.745655z" fill="#5E5F62" /><path d="M423.724138 459.246345m-17.655172 0a17.655172 17.655172 0 1 0 35.310344 0 17.655172 17.655172 0 1 0-35.310344 0Z" fill="#7F5B53" /><path d="M609.103448 468.073931m-26.482758 0a26.482759 26.482759 0 1 0 52.965517 0 26.482759 26.482759 0 1 0-52.965517 0Z" fill="#7F5B53" /><path d="M317.793103 794.694621c0-107.255172 86.951724-158.896552 194.206897-158.896552s194.206897 51.641379 194.206897 158.896552-86.951724 17.655172-194.206897 17.655172-194.206897 89.6-194.206897-17.655172z" fill="#802D40" /><path d="M512 812.349793c31.744 0 61.687172 7.856552 88.152276 16.119173-0.706207-48.145655-39.830069-86.987034-88.152276-86.987035s-87.446069 38.841379-88.152276 86.987035c26.465103-8.262621 56.408276-16.119172 88.152276-16.119173z" fill="#E64C3C" /></svg>