<?xml version="1.0" standalone="no"?><!DOCTYPE svg PUBLIC "-//W3C//DTD SVG 1.1//EN" "http://www.w3.org/Graphics/SVG/1.1/DTD/svg11.dtd"><svg class="icon" width="256px" height="256.00px" viewBox="0 0 1024 1024" version="1.1" xmlns="http://www.w3.org/2000/svg"><path d="M958.638298 428.380596c-37.909787-214.451745-221.314723-370.382979-446.638298-370.382979S103.271489 213.928851 65.361702 428.380596c-36.23217 14.401362-65.361702 56.690383-65.361702 98.042553 0 43.095149 27.974809 79.283745 66.625362 92.421447C113.511489 821.705532 294.912 973.061447 512 973.061447c217.109787 0 398.488511-151.377702 445.374638-354.216851v0.021787C996.025191 605.706894 1024 569.518298 1024 526.423149c0-41.35217-29.129532-83.641191-65.361702-98.042553z" fill="#FFD581" /><path d="M370.382979 602.678468m-43.574468 0a43.574468 43.574468 0 1 0 87.148936 0 43.574468 43.574468 0 1 0-87.148936 0Z" fill="#414141" /><path d="M675.404255 602.678468m-43.574468 0a43.574468 43.574468 0 1 0 87.148936 0 43.574468 43.574468 0 1 0-87.148936 0Z" fill="#414141" /><path d="M958.638298 428.380596v0.021787C920.728511 213.972426 733.881191 50.938553 508.557617 50.938553S103.271489 213.928851 65.361702 428.380596c0 0 368.334979 94.338723 615.315064-102.966468 12.091915-9.673532 29.674213-7.40766 38.301957 5.446808 44.642043 66.494638 126.976 147.194553 239.659575 97.51966z" fill="#414141" /><path d="M370.404766 810.158298c-20.785021 0-40.262809-7.647319-53.836255-21.242553a21.765447 21.765447 0 1 1 30.807149-30.807149c5.730043 5.75183 14.532085 8.910979 24.619574 8.453447 10.131064-0.413957 19.957106-4.422809 26.318979-10.784681 30.001021-29.979234 82.617191-29.93566 112.574638 0 12.854468 12.854468 38.105872 12.854468 50.96034 0 30.001021-30.001021 82.55183-30.001021 112.552852 0 12.832681 12.854468 38.084085 12.854468 50.96034 0a21.765447 21.765447 0 1 1 30.807149 30.807149c-29.957447 29.957447-82.573617 30.001021-112.574638 0-12.222638-12.179064-38.715915-12.179064-50.938554 0-30.001021 29.957447-82.617191 29.957447-112.574638 0-12.854468-12.854468-38.105872-12.854468-50.96034 0-14.118128 14.118128-34.314894 22.702298-55.426724 23.508425-1.089362 0.043574-2.200511 0.065362-3.289872 0.065362z" fill="#CB8252" /><path d="M435.722894 559.104c-4.139574 0-8.344511-1.198298-12.070128-3.660255l-65.361702-43.574468a21.787234 21.787234 0 1 1 24.18383-36.253958l65.361702 43.574468a21.787234 21.787234 0 0 1-12.113702 39.914213zM610.06434 559.104a21.787234 21.787234 0 0 1-12.113702-39.914213l65.361702-43.574468a21.765447 21.765447 0 1 1 24.18383 36.253958l-65.361702 43.574468a21.700085 21.700085 0 0 1-12.070128 3.660255z" fill="#414141" /></svg>