<?xml version="1.0" standalone="no"?><!DOCTYPE svg PUBLIC "-//W3C//DTD SVG 1.1//EN" "http://www.w3.org/Graphics/SVG/1.1/DTD/svg11.dtd"><svg class="icon" width="256px" height="256.00px" viewBox="0 0 1024 1024" version="1.1" xmlns="http://www.w3.org/2000/svg"><path d="M379.342626 951.549932c-132.986775 0-243.226535-63.336622-298.108513-172.661377-59.823004-119.170205-39.711202-261.178926 52.521266-370.576882a18.300093 18.300093 0 0 1 27.980842 23.58882c-82.62492 98.015298-100.943313 224.688541-47.781542 330.572879 51.606262 102.773322 159.46701 159.41211 288.903567 151.762671a18.428194 18.428194 0 0 1 19.361498 17.165487 18.300093 18.300093 0 0 1-17.165487 19.361498c-8.655944 0.530703-17.238688 0.786904-25.711631 0.786904z" fill="#E64C3C" /><path d="M385.637858 1024l18.300093-91.500465-18.300093-91.500464 201.301023 91.500464z" fill="#C03A2B" /><path d="M971.734935 0l-37.807992 63.00722a235.265995 235.265995 0 0 1-106.909143 94.227178c-70.491958-84.381729-176.431196-138.129101-294.979198-138.129101S307.551362 72.85267 237.059404 157.234398a235.448996 235.448996 0 0 1-106.909143-94.227178L92.360569 0S56.657088 184.391736 175.33319 260.922725a382.947745 382.947745 0 0 0-27.59654 142.484524c0 212.244478 172.057474 384.301952 384.301952 384.301951s384.301952-172.057474 384.301951-384.301951c0-50.398456-9.973551-98.3813-27.59654-142.484524C1007.438416 184.391736 971.734935 0 971.734935 0z" fill="#F0785A" /><path d="M652.819215 641.308457a18.300093 18.300093 0 0 1-18.300093-18.300093c0-21.57581-54.003574-36.600186-102.48052-36.600186s-102.48052 15.024376-102.480521 36.600186a18.300093 18.300093 0 1 1-36.600186 0c0-57.773393 87.419544-73.200372 139.080707-73.200372s139.080706 15.426978 139.080706 73.200372a18.300093 18.300093 0 0 1-18.300093 18.300093zM440.556437 287.714061a18.281793 18.281793 0 0 1-15.81128-9.058546l-33.013368-56.455787-47.799842-1.811709a18.281793 18.281793 0 1 1 1.390807-36.563586l67.856744 2.562013 43.151619 73.785975a18.318393 18.318393 0 0 1-15.77468 27.54164zM605.220673 287.714061a18.300093 18.300093 0 0 1-15.77468-27.54164l43.151619-73.785975 67.856745-2.562013c10.394453-0.933305 18.611195 7.484738 18.977196 17.58639a18.263493 18.263493 0 0 1-17.586389 18.977196l-47.799843 1.811709-33.013367 56.455787a18.281793 18.281793 0 0 1-15.811281 9.058546z" fill="#C2615F" /><path d="M339.887626 321.05683m-64.050325 0a64.050325 64.050325 0 1 0 128.10065 0 64.050325 64.050325 0 1 0-128.10065 0Z" fill="#F3D55B" /><path d="M705.889485 321.05683m-64.050326 0a64.050325 64.050325 0 1 0 128.100651 0 64.050325 64.050325 0 1 0-128.100651 0Z" fill="#F3D55B" /><path d="M705.889485 321.05683m-27.45014 0a27.450139 27.450139 0 1 0 54.900279 0 27.450139 27.450139 0 1 0-54.900279 0Z" fill="#E64C3C" /><path d="M339.887626 321.05683m-27.450139 0a27.450139 27.450139 0 1 0 54.900278 0 27.450139 27.450139 0 1 0-54.900278 0Z" fill="#E64C3C" /></svg>