<?xml version="1.0" standalone="no"?><!DOCTYPE svg PUBLIC "-//W3C//DTD SVG 1.1//EN" "http://www.w3.org/Graphics/SVG/1.1/DTD/svg11.dtd"><svg class="icon" width="256px" height="256.00px" viewBox="0 0 1024 1024" version="1.1" xmlns="http://www.w3.org/2000/svg"><path d="M925.538462 488.664615c-5.612308-31.783385-19.692308-46.828308-19.692308-46.828307H137.846154s-14.060308 14.926769-19.692308 46.828307c-32.748308 13.016615-59.076923 51.239385-59.076923 88.615385 0 38.951385 25.284923 71.660308 60.219077 83.534769C161.673846 844.150154 325.632 980.972308 521.846154 980.972308s360.172308-136.822154 402.550154-320.157539C959.330462 648.940308 984.615385 616.211692 984.615385 577.28c0-37.395692-26.328615-75.598769-59.076923-88.615385z" fill="#FFD581" /><path d="M630.153846 902.203077a19.692308 19.692308 0 0 1-19.692308-19.692308c0-54.291692-44.169846-98.461538-98.461538-98.461538s-98.461538 44.169846-98.461538 98.461538a19.692308 19.692308 0 1 1-39.384616 0c0-75.992615 61.833846-137.846154 137.846154-137.846154s137.846154 61.853538 137.846154 137.846154a19.692308 19.692308 0 0 1-19.692308 19.692308z" fill="#CB8252" /><path d="M354.461538 646.203077m-39.384615 0a39.384615 39.384615 0 1 0 78.769231 0 39.384615 39.384615 0 1 0-78.769231 0Z" fill="#414141" /><path d="M669.538462 646.203077m-39.384616 0a39.384615 39.384615 0 1 0 78.769231 0 39.384615 39.384615 0 1 0-78.769231 0Z" fill="#414141" /><path d="M413.538462 606.818462a19.534769 19.534769 0 0 1-12.288-4.312616l-98.461539-78.769231a19.692308 19.692308 0 0 1 24.595692-30.759384l98.461539 78.769231A19.692308 19.692308 0 0 1 413.538462 606.818462zM610.461538 606.818462a19.692308 19.692308 0 0 1-12.307692-35.072l98.461539-78.769231a19.692308 19.692308 0 1 1 24.595692 30.759384l-98.461539 78.769231a19.613538 19.613538 0 0 1-12.288 4.312616z" fill="#CB8252" /><path d="M1004.307692 422.144h-101.415384L859.785846 134.203077a110.178462 110.178462 0 0 0-21.700923-52.164923c-27.195077-35.485538-75.618462-47.261538-118.055385-33.240616l-172.091076 56.851693a109.587692 109.587692 0 0 1-71.542154-0.945231L328.073846 51.278769c-59.037538-21.267692-127.015385 10.476308-141.981538 71.424a109.784615 109.784615 0 0 0-2.185846 11.500308L140.8 422.144H19.692308a19.692308 19.692308 0 1 0 0 39.384615h984.615384a19.692308 19.692308 0 1 0 0-39.384615z" fill="#7F5B53" /><path d="M152.595692 343.374769h738.500923l-5.888-39.384615H158.483692z" fill="#93726D" /></svg>