<?xml version="1.0" standalone="no"?><!DOCTYPE svg PUBLIC "-//W3C//DTD SVG 1.1//EN" "http://www.w3.org/Graphics/SVG/1.1/DTD/svg11.dtd"><svg class="icon" width="256px" height="256.00px" viewBox="0 0 1024 1024" version="1.1" xmlns="http://www.w3.org/2000/svg"><path d="M958.638298 424.851064c-37.909787-214.451745-221.314723-370.382979-446.638298-370.382979S103.271489 210.399319 65.361702 424.851064c-36.23217 14.401362-65.361702 56.690383-65.361702 98.042553 0 43.095149 27.974809 79.283745 66.625362 92.421447C113.511489 818.154213 294.912 969.531915 512 969.531915c217.109787 0 398.488511-151.377702 445.374638-354.216851v0.021787C996.025191 602.177362 1024 565.988766 1024 522.893617c0-41.35217-29.129532-83.641191-65.361702-98.042553z" fill="#FFD581" /><path d="M435.744681 708.085106h87.148936v130.723405h-87.148936zM522.893617 708.085106h87.148936v87.148937h-87.148936z" fill="#ECF0F0" /><path d="M346.939915 488.556936m-107.280341 0a107.28034 107.28034 0 1 0 214.560681 0 107.28034 107.28034 0 1 0-214.560681 0Z" fill="#D0E8F9" /><path d="M346.939915 617.646298c-71.178894 0-129.067574-57.910468-129.067575-129.089362s57.888681-129.067574 129.067575-129.067574 129.089362 57.888681 129.089362 129.067574-57.932255 129.089362-129.089362 129.089362z m0-214.582468C299.79234 403.06383 261.446809 441.409362 261.446809 488.556936s38.345532 85.514894 85.493106 85.514894 85.514894-38.367319 85.514894-85.514894-38.367319-85.493106-85.514894-85.493106z" fill="#556080" /><path d="M677.060085 488.556936m-107.28034 0a107.28034 107.28034 0 1 0 214.560681 0 107.28034 107.28034 0 1 0-214.560681 0Z" fill="#D0E8F9" /><path d="M677.060085 617.646298c-71.178894 0-129.089362-57.910468-129.089362-129.089362S605.902979 359.489362 677.060085 359.489362 806.12766 417.378043 806.12766 488.556936s-57.888681 129.089362-129.067575 129.089362z m0-214.582468c-47.147574 0-85.514894 38.345532-85.514894 85.493106s38.367319 85.514894 85.514894 85.514894S762.553191 535.704511 762.553191 488.556936 724.20766 403.06383 677.060085 403.06383z" fill="#556080" /><path d="M591.545191 488.556936h-43.574468c0-19.826383-16.14434-35.970723-35.970723-35.970723s-35.970723 16.14434-35.970723 35.970723h-43.574468c0-43.879489 35.687489-79.545191 79.545191-79.545191s79.545191 35.665702 79.545191 79.545191zM75.318468 381.646979l150.375489 125.32017 27.909447-33.486979-163.273532-136.061276c-5.664681 14.401362-10.784681 29.085957-15.011404 44.228085zM934.432681 339.270809l-163.861787 134.078638 27.582638 33.748425L949.269787 383.455319a451.213617 451.213617 0 0 0-14.837106-44.18451z" fill="#556080" /><path d="M697.191489 729.87234H326.808511a21.787234 21.787234 0 1 1 0-43.574468h370.382978a21.787234 21.787234 0 1 1 0 43.574468z" fill="#CB8252" /><path d="M326.808511 250.553191a21.787234 21.787234 0 1 0 0 43.574469c65.666723 0 174.297872-111.485277 174.297872-238.548426 0-0.217872-0.130723-0.413957-0.130723-0.63183-14.72817 0.348596-29.238468 1.372596-43.574469 3.006639C456.006809 170.76834 358.182128 250.553191 326.808511 250.553191zM523.02434 57.823319c13.834894 132.379234 9.913191 146.867745-59.631659 221.445447a21.787234 21.787234 0 0 0 31.852936 29.717787c81.026723-86.865702 85.493106-116.125957 71.549277-250.988936a476.508596 476.508596 0 0 0-43.509107-3.028426c-0.021787 0.958638-0.370383 1.873702-0.261447 2.854128zM591.414468 75.906723c48.302298 79.893787 44.337021 120.788426 21.198979 164.428256a21.765447 21.765447 0 1 0 38.476255 20.436425c32.027234-60.285277 28.628426-114.731574-11.961191-188.786383a459.449191 459.449191 0 0 0-50.284937-11.111489 21.286128 21.286128 0 0 0 2.570894 15.033191z" fill="#414141" /></svg>