<?xml version="1.0" standalone="no"?><!DOCTYPE svg PUBLIC "-//W3C//DTD SVG 1.1//EN" "http://www.w3.org/Graphics/SVG/1.1/DTD/svg11.dtd"><svg class="icon" width="256px" height="256.00px" viewBox="0 0 1024 1024" version="1.1" xmlns="http://www.w3.org/2000/svg"><path d="M843.373874 229.550115a69.805663 69.805663 0 0 0-26.834751-5.384605h-600.251025c-9.49809 0-18.554818 1.959643-26.834751 5.384605h653.920527zM145.670331 353.131208v529.633257c0 38.839772 31.777995 70.617768 70.617767 70.617767h600.251025c38.839772 0 70.617768-31.777995 70.617767-70.617767V353.131208h-741.486559z" fill="#FFDB2B" /><path d="M940.120216 353.131208H83.879784a61.967091 61.967091 0 0 1-61.790546-61.790546 61.967091 61.967091 0 0 1 61.790546-61.790547h856.240432a61.967091 61.967091 0 0 1 61.790546 61.790547 61.967091 61.967091 0 0 1-61.790546 61.790546z" fill="#CBB292" /><path d="M851.848006 229.550115h-688.523233l41.293739-94.822007c0.47667-3.495579 15.888998-40.163855 16.718757-43.518199 13.417376-54.640498 74.342855-102.837124 127.288526-83.770327l132.973256 47.878846a98.229315 98.229315 0 0 0 64.138587 0.847413L662.55708 5.197468c38.062977-12.569963 81.475249-2.012606 105.838379 29.800698 10.151304 13.258486 39.775458 82.163773 42.158808 99.729942L851.848006 229.550115z" fill="#CB8252" /><path d="M268.704136 512.021185a95.122133 94.221756 90 1 0 188.443513 0 95.122133 94.221756 90 1 0-188.443513 0Z" fill="#D0E8F9" /><path d="M556.930555 512.021185a95.122133 94.221756 90 1 0 188.443512 0 95.122133 94.221756 90 1 0-188.443512 0Z" fill="#D0E8F9" /><path d="M651.152311 399.244611c-49.926762 0-92.297422 33.137387-106.650483 78.756465-11.510696-5.137443-24.221894-8.138698-37.462726-8.138698s-25.95203 3.001255-37.462726 8.138698c-14.353061-45.601423-56.723722-78.756465-106.650483-78.756465-61.68462 0-111.876198 50.579976-111.876199 112.776574s50.191578 112.776575 111.876199 112.776575c60.448809 0 109.722356-48.585024 111.699654-109.033833 17.760369-12.95836 47.066742-12.95836 64.844765 0 1.977297 60.448809 51.250845 109.033833 111.681999 109.033833 61.702274 0 111.876198-50.579976 111.876198-112.776575s-50.191578-112.776575-111.876198-112.776574zM362.925893 589.488876c-42.229425 0-76.567314-34.761596-76.567315-77.467691s34.337889-77.467691 76.567315-77.467691 76.567314 34.761596 76.567314 77.467691-34.337889 77.467691-76.567314 77.467691z m288.226418 0c-42.229425 0-76.567314-34.761596-76.567315-77.467691s34.337889-77.467691 76.567315-77.467691 76.567314 34.761596 76.567314 77.467691-34.355544 77.467691-76.567314 77.467691z" fill="#556080" /><path d="M888.074921 649.125581c-19.667048-26.163883-42.670786-41.946954-68.375653-46.907852-31.79565-6.126091-59.654359 2.577549-72.700992 22.756576-10.61032 16.45394-8.950802 37.621616 4.466574 56.635449 15.5006 21.997435 40.093238 25.881412 52.151221 24.68091a17.513206 17.513206 0 0 0 15.747762-18.943216c-0.741487-9.604016-8.950802-16.348013-18.854944-16.224432a23.692261 23.692261 0 0 1-20.196681-9.868833c-2.877674-4.060522-7.167703-11.704895-3.672124-17.124809 3.954595-6.126091 16.983573-10.998717 36.36815-7.238321 17.071845 3.283726 32.378246 14.22948 46.81958 33.437513 10.522047 13.999972 12.375764 30.983546 5.543495 46.766616-8.368205 16.577521-28.812049 34.408507-53.951975 34.408508-3.530888 0-7.097086-0.370743-10.592665-1.076921-29.059211-5.967201-58.18904-19.508158-86.542074-40.269782a182.370385 182.370385 0 0 0-18.996179-12.075639c-1.765444-0.988649-3.530888-1.853716-5.278678-2.771747a153.011048 153.011048 0 0 0-15.447637-6.920541c-1.377046-0.529633-2.754093-1.147539-4.148794-1.624209a135.53315 135.53315 0 0 0-19.102106-5.066825c-1.377046-0.264817-2.771747-0.406052-4.148794-0.63556a127.888777 127.888777 0 0 0-17.548515-1.535936c-0.617905 0-1.218156-0.15889-1.836062-0.15889-0.282471 0-0.529633 0.052963-0.812104 0.052963a129.795457 129.795457 0 0 0-17.319008 1.288775l-2.348041 0.406052a135.444878 135.444878 0 0 0-15.306401 3.354344l-1.182847 0.31778c-30.665766 8.880184-56.47656 27.452657-74.431127 45.954512-17.919259-18.448892-43.677089-36.986056-74.272237-45.901549-0.511979-0.15889-1.041612-0.282471-1.553591-0.423707a140.670593 140.670593 0 0 0-14.86504-3.266071c-0.900377-0.141236-1.765444-0.335434-2.665821-0.459016a127.94174 127.94174 0 0 0-17.195426-1.288774c-0.282471 0-0.547288-0.052963-0.829759-0.052963-0.63556 0-1.27112 0.15889-1.90668 0.176544a126.635312 126.635312 0 0 0-17.460243 1.535936c-1.394701 0.211853-2.771747 0.370743-4.166448 0.63556a135.762658 135.762658 0 0 0-19.119761 5.066825c-1.377046 0.47667-2.718784 1.094575-4.09583 1.606554-5.137443 1.941989-10.310194 4.272375-15.518255 6.938196-1.74779 0.900377-3.495579 1.765444-5.243369 2.736438-6.302636 3.513234-12.622926 7.397211-19.013834 12.075639-28.353034 20.761624-57.482863 34.302581-86.542074 40.269782a58.330276 58.330276 0 0 1-44.930555-9.409818c-0.935685-0.670869-1.74779-1.43001-2.630512-2.136187-1.324083-1.041612-2.648166-2.06557-3.866322-3.230763-1.059267-1.006303-1.977297-2.047915-2.912983-3.089528a57.129774 57.129774 0 0 1-5.049171-6.267326 54.746424 54.746424 0 0 1-3.001255-4.978553c-0.494324-0.900377-1.023958-1.800753-1.465318-2.70113l-0.229508-0.529633a45.689696 45.689696 0 0 1 5.084479-47.77292c11.616623-15.447637 25.228197-30.171441 46.113402-33.313931 14.670841-2.242114 25.757831 1.253465 31.195399 9.762906 3.583852 5.614113 3.424962 11.775513 1.90668 14.035281-6.496835 9.851179-21.326566 10.257231-21.308911 10.257231a17.654442 17.654442 0 1 0 0 35.308884c3.424962 0 34.002455-0.723832 50.75652-26.093265 9.709943-14.688496 9.056729-35.785554-1.606554-52.504311-13.205523-20.691006-37.356799-30.030206-66.204157-25.704867-38.062977 5.720039-59.813249 34.673324-69.099486 47.031433a80.751417 80.751417 0 0 0-9.992414 81.263396c0.052963 0.141236 0.035309 0.300126 0.088272 0.441361l0.31778 0.723832 0.423707 0.935686a54.72877 54.72877 0 0 0 0.812104 1.783098c41.099541 94.610154 118.00229 144.625188 222.410659 144.625188 72.224322 0 136.256982-23.762879 157.618857-32.607754 21.34422 8.844875 85.359227 32.607754 157.601203 32.607754h0.017654c104.832076 0 181.840751-50.421086 222.85202-145.755072 12.95836-27.770437 9.957105-59.054108-8.756603-83.946871z" fill="#464F5D" /><path d="M722.882308 1024h-412.937395a23.039047 23.039047 0 0 1-23.039047-23.039047V953.382232h459.015489v47.578721c0 12.728853-10.310194 23.039047-23.039047 23.039047z" fill="#FEC722" /></svg>