<?xml version="1.0" standalone="no"?><!DOCTYPE svg PUBLIC "-//W3C//DTD SVG 1.1//EN" "http://www.w3.org/Graphics/SVG/1.1/DTD/svg11.dtd"><svg t="1763368220136" class="icon" viewBox="0 0 1024 1024" version="1.1" xmlns="http://www.w3.org/2000/svg" p-id="146312" xmlns:xlink="http://www.w3.org/1999/xlink" width="256" height="256"><path d="M709.485714 248.685714C672.914286 219.428571 629.028571 204.8 585.142857 190.171429c-51.2-14.628571-95.085714-14.628571-146.285714 0-58.514286 14.628571-109.714286 43.885714-146.285714 87.771428-43.885714 43.885714-73.142857 95.085714-87.771429 146.285714-21.942857 95.085714 0 190.171429 58.514286 263.314286l7.314285 14.628572c36.571429 43.885714 58.514286 65.828571 58.514286 124.342857 0 21.942857 7.314286 43.885714 29.257143 65.828571 14.628571 14.628571 36.571429 29.257143 65.828571 29.257143h197.485715c51.2 0 87.771429-36.571429 87.771428-87.771429s14.628571-65.828571 51.2-117.028571l7.314286-7.314286c21.942857-29.257143 43.885714-58.514286 51.2-95.085714 14.628571-36.571429 21.942857-73.142857 21.942857-109.714286-7.314286-102.4-51.2-190.171429-131.657143-256z m36.571429 336.457143c-14.628571 21.942857-29.257143 51.2-43.885714 73.142857l-7.314286 7.314286c-36.571429 51.2-65.828571 87.771429-65.828572 160.914286 0 7.314286-7.314286 14.628571-14.628571 14.628571H416.914286c-7.314286 0-7.314286 0-7.314286-7.314286l-7.314286-7.314285c0-80.457143-29.257143-117.028571-73.142857-168.228572l-7.314286-14.628571c-43.885714-51.2-58.514286-131.657143-43.885714-197.485714 7.314286-43.885714 29.257143-80.457143 65.828572-117.028572 29.257143-29.257143 73.142857-58.514286 117.028571-65.828571 14.628571-7.314286 36.571429-7.314286 51.2-7.314286 21.942857 0 36.571429 0 58.514286 7.314286 36.571429 7.314286 65.828571 21.942857 95.085714 43.885714 58.514286 43.885714 95.085714 117.028571 95.085714 190.171429 0 29.257143-7.314286 58.514286-14.628571 87.771428zM665.6 950.857143H365.714286c-21.942857 0-36.571429 14.628571-36.571429 36.571428s21.942857 36.571429 36.571429 36.571429h292.571428c21.942857 0 36.571429-14.628571 36.571429-36.571429s-14.628571-36.571429-29.257143-36.571428z" fill="#2c2c2c" p-id="146313"></path><path d="M585.142857 424.228571c-21.942857-29.257143-51.2-29.257143-65.828571 0l-58.514286 102.4-51.2-102.4v-7.314285c-14.628571-14.628571-36.571429-21.942857-51.2-7.314286-14.628571 7.314286-21.942857 29.257143-14.628571 43.885714l87.771428 168.228572 7.314286 7.314285c14.628571 21.942857 51.2 21.942857 58.514286-7.314285l58.514285-102.4 51.2 102.4v7.314285c7.314286 14.628571 29.257143 21.942857 43.885715 14.628572 14.628571-7.314286 29.257143-29.257143 14.628571-51.2L585.142857 424.228571zM512 109.714286c21.942857 0 36.571429-14.628571 36.571429-36.571429V29.257143C541.257143 14.628571 526.628571 0 512 0c-21.942857 0-36.571429 14.628571-36.571429 36.571429v43.885714c0 14.628571 21.942857 29.257143 36.571429 29.257143zM987.428571 380.342857h-43.885714c-14.628571 0-29.257143 14.628571-29.257143 36.571429s14.628571 36.571429 36.571429 36.571428h43.885714c14.628571 0 29.257143-14.628571 29.257143-29.257143 0-21.942857-14.628571-43.885714-36.571429-43.885714zM73.142857 380.342857H29.257143c-14.628571 7.314286-29.257143 21.942857-29.257143 43.885714 0 14.628571 14.628571 29.257143 36.571429 29.257143h43.885714c14.628571 0 29.257143-14.628571 29.257143-36.571428 0-14.628571-14.628571-36.571429-36.571429-36.571429zM819.2 124.342857l-21.942857 21.942857-7.314286 7.314286c-7.314286 14.628571-7.314286 36.571429 7.314286 43.885714 14.628571 14.628571 36.571429 14.628571 51.2 0l29.257143-29.257143c7.314286-14.628571 7.314286-36.571429-7.314286-43.885714-14.628571-21.942857-36.571429-14.628571-51.2 0zM219.428571 153.6l-29.257142-29.257143c-14.628571-14.628571-36.571429-14.628571-51.2 0-14.628571 7.314286-14.628571 29.257143-7.314286 43.885714l7.314286 7.314286 21.942857 29.257143c14.628571 14.628571 36.571429 14.628571 51.2 0 14.628571-21.942857 14.628571-36.571429 7.314285-51.2z" fill="#2c2c2c" p-id="146314"></path></svg>