<?xml version="1.0" standalone="no"?><!DOCTYPE svg PUBLIC "-//W3C//DTD SVG 1.1//EN" "http://www.w3.org/Graphics/SVG/1.1/DTD/svg11.dtd"><svg t="1763367095333" class="icon" viewBox="0 0 1024 1024" version="1.1" xmlns="http://www.w3.org/2000/svg" p-id="23132" xmlns:xlink="http://www.w3.org/1999/xlink" width="256" height="256"><path d="M510.355 957.16c-137.239 0-233.14-6.47-301.807-20.362-43.159-8.731-75.407-20.357-98.589-35.543-36.462-23.886-44.116-53.248-44.116-73.673 0-43.688 33.326-91.016 93.839-133.265 58.865-41.099 137.087-72.605 220.299-88.741 12.369-3.036 22.379-12.858 26.179-25.725 4.261-14.426-0.116-29.769-12.01-42.095a24.875 24.875 0 0 1-1.682-1.934c-26.747-26.666-49.246-61.92-65.19-102.201-16.51-41.71-25.237-86.985-25.237-130.929 0-68.655 20.85-127.633 60.296-170.557 37.926-41.27 90.493-63.998 148.017-63.998s110.09 22.729 148.015 63.998c39.445 42.924 60.294 101.902 60.294 170.557 0 44.105-8.782 89.519-25.395 131.332-16.476 41.465-39.901 77.578-67.77 104.481-11.386 12.18-15.52 27.227-11.345 41.356 3.75 12.693 13.599 22.441 25.771 25.554 83.38 16.08 161.777 47.571 220.81 88.707 60.702 42.299 94.132 89.696 94.132 133.461 0 20.425-7.654 49.787-44.117 73.673-23.181 15.185-55.431 26.812-98.59 35.543-68.666 13.891-164.567 20.361-301.804 20.361z m-78.084-450.643c22.117 24.717 29.997 57.055 21.073 87.27-8.846 29.952-32.83 52.866-62.592 59.799-0.305 0.07-0.61 0.135-0.917 0.195-170.253 32.872-274.794 123.382-274.794 173.802 0 33.146 56.154 51.463 103.261 60.994 65.372 13.225 158.173 19.385 292.051 19.385 133.876 0 226.677-6.16 292.051-19.385 47.107-9.53 103.263-27.848 103.263-60.994 0-50.564-104.868-141.209-275.654-173.973a24.845 24.845 0 0 1-1.115-0.241c-29.432-7.074-53.162-29.899-61.928-59.566-9.197-31.124-0.518-64.606 23.216-89.563 0.257-0.27 0.52-0.534 0.788-0.793 47.681-45.782 78.49-124.584 78.49-200.755 0-109.135-65.428-185.357-159.11-185.357-93.684 0-159.114 76.221-159.114 185.357 0 75.878 30.62 154.498 78.007 200.293a24.632 24.632 0 0 1 3.024 3.532z" fill="#555555" p-id="23133"></path></svg>