<?xml version="1.0" standalone="no"?><!DOCTYPE svg PUBLIC "-//W3C//DTD SVG 1.1//EN" "http://www.w3.org/Graphics/SVG/1.1/DTD/svg11.dtd"><svg t="1763601306863" class="icon" viewBox="0 0 1024 1024" version="1.1" xmlns="http://www.w3.org/2000/svg" p-id="2331" width="256" height="256" xmlns:xlink="http://www.w3.org/1999/xlink"><path d="M512 512m-447.78 0a447.78 447.78 0 1 0 895.56 0 447.78 447.78 0 1 0-895.56 0Z" fill="#29E09D" p-id="2332"></path><path d="M805.22 411.27c0-74.34-41.97-139.57-165.12-139.57-10.48 0-19.81 6.61-23.29 16.5l-14.71 58.59c-2.67 7.59 2.96 15.53 11 15.53h49.61c32.31 0 53.75 21.87 51.75 54.11-3.03 48.85-42.9 79.36-84.05 79.36H509.24l58.26-205.22c2.99-10.53-3.12-19.08-13.66-19.08h-57.23c-10.54 0-21.5 8.54-24.49 19.08l-58.26 205.22H241.98c-10.48 0-19.81 6.61-23.29 16.5l-14.25 56.74c-2.67 7.59 2.96 15.53 11 15.53h173l-45.92 162.49c-2.99 10.54 3.12 19.08 13.66 19.08h57.23c10.54 0 21.5-8.54 24.49-19.08l45.92-162.49h143.39c110.03 0 178.01-99.13 178.01-173.28z" fill="#FFFFFF" p-id="2333"></path></svg>