<?xml version="1.0" standalone="no"?><!DOCTYPE svg PUBLIC "-//W3C//DTD SVG 1.1//EN" "http://www.w3.org/Graphics/SVG/1.1/DTD/svg11.dtd"><svg t="1761099665821" class="icon" viewBox="0 0 1024 1024" version="1.1" xmlns="http://www.w3.org/2000/svg" p-id="3300" xmlns:xlink="http://www.w3.org/1999/xlink" width="256" height="256"><path d="M192 448c10.9 0 21.8-4.2 30.2-12.5L497 160.8c5.4-5.4 11.8-6.2 15.1-6.2 3.3 0 9.6 0.8 15.1 6.2l274.7 274.7c16.7 16.7 43.7 16.7 60.3 0 16.7-16.7 16.7-43.7 0-60.3L587.4 100.4c-41.6-41.6-109.3-41.6-150.9 0L161.8 375.2c-16.7 16.7-16.7 43.7 0 60.3 8.4 8.3 19.3 12.5 30.2 12.5zM801.8 588.5L527.1 863.2c-5.4 5.4-11.8 6.2-15.1 6.2-3.3 0-9.7-0.8-15.1-6.2L222.2 588.5c-16.7-16.7-43.7-16.7-60.3 0-16.7 16.7-16.7 43.7 0 60.3l274.8 274.8c20.8 20.8 48.1 31.2 75.4 31.2 27.3 0 54.6-10.4 75.4-31.2l274.7-274.8c16.7-16.7 16.7-43.7 0-60.3-16.7-16.7-43.7-16.7-60.4 0z" fill="#2c2c2c" p-id="3301"></path></svg>