<?xml version="1.0" standalone="no"?><!DOCTYPE svg PUBLIC "-//W3C//DTD SVG 1.1//EN" "http://www.w3.org/Graphics/SVG/1.1/DTD/svg11.dtd"><svg t="1761024421889" class="icon" viewBox="0 0 1024 1024" version="1.1" xmlns="http://www.w3.org/2000/svg" p-id="42042" xmlns:xlink="http://www.w3.org/1999/xlink" width="256" height="256"><path d="M843.922286 109.714286c98.816 0 124.123429 178.102857 96.402285 406.308571-27.794286 228.644571-96.914286 398.262857-198.363428 398.262857-74.24 0-141.458286-79.725714-243.492572-258.194285l-23.332571 35.913142C372.809143 847.140571 308.370286 914.285714 243.565714 914.285714c-95.670857 0-151.186286-161.206857-166.4-380.854857l-2.194285-38.473143C64.585143 275.602286 99.913143 109.714286 193.170286 109.714286c69.558857 0 111.396571 52.516571 241.956571 290.816l66.779429 123.172571 76.8-123.611428 44.690285-70.656c111.177143-172.324571 158.939429-219.721143 220.452572-219.721143z m0 66.706285c-33.792 0-92.891429 75.483429-218.989715 276.699429L539.209143 591.506286l20.114286 35.328c85.138286 147.382857 145.188571 220.745143 182.564571 220.745143 47.981714 0 108.251429-147.748571 131.437714-339.529143 21.942857-181.028571 0.731429-331.629714-29.403428-331.629715z m-650.678857 0c-30.72 0-60.562286 151.04-50.029715 333.604572 10.752 189.293714 59.245714 337.700571 100.205715 337.700571 34.230857 0 98.304-73.728 194.852571-222.573714l22.820571-35.693714-75.483428-139.044572-39.058286-70.070857c-84.48-149.796571-125.805714-203.922286-153.307428-203.922286z" fill="#2c2c2c" p-id="42043"></path></svg>