<?xml version="1.0" standalone="no"?><!DOCTYPE svg PUBLIC "-//W3C//DTD SVG 1.1//EN" "http://www.w3.org/Graphics/SVG/1.1/DTD/svg11.dtd"><svg t="1761033649712" class="icon" viewBox="0 0 1024 1024" version="1.1" xmlns="http://www.w3.org/2000/svg" p-id="64702" xmlns:xlink="http://www.w3.org/1999/xlink" width="256" height="256"><path d="M512 30.567164c265.460537 0 481.432836 215.972299 481.432836 481.432836s-215.972299 481.432836-481.432836 481.432836S30.567164 777.460537 30.567164 512 246.539463 30.567164 512 30.567164m0-30.567164C229.230806 0 0 229.230806 0 512s229.230806 512 512 512 512-229.230806 512-512S794.769194 0 512 0z" p-id="64703"></path><path d="M512 191.044776c176.976239 0 320.955224 143.978985 320.955224 320.955224s-143.978985 320.955224-320.955224 320.955224-320.955224-143.978985-320.955224-320.955224 143.978985-320.955224 320.955224-320.955224m0-30.567164c-194.139701 0-351.522388 157.382687-351.522388 351.522388s157.382687 351.522388 351.522388 351.522388 351.522388-157.382687 351.522388-351.522388-157.382687-351.522388-351.522388-351.522388z" p-id="64704"></path></svg>