<?xml version="1.0" standalone="no"?><!DOCTYPE svg PUBLIC "-//W3C//DTD SVG 1.1//EN" "http://www.w3.org/Graphics/SVG/1.1/DTD/svg11.dtd"><svg t="1761024655475" class="icon" viewBox="0 0 1024 1024" version="1.1" xmlns="http://www.w3.org/2000/svg" p-id="45936" xmlns:xlink="http://www.w3.org/1999/xlink" width="256" height="256"><path d="M673.046667 946.687658a460.333813 460.333813 0 0 1-161.047016 28.858135 461.730175 461.730175 0 0 1-144.38377-23.039963l-9.77453-301.21843 315.182044 295.400258zM372.689327 357.842049L77.335615 673.024093A460.333813 460.333813 0 0 1 48.477479 512.000349c0-49.314831 7.726533-97.861662 23.016691-144.38377l301.21843-9.77453z m346.786357 164.677556l-14.010159-431.708404a466.640712 466.640712 0 0 1 220.020014 211.874572l-206.009855 219.833832z m-278.29483-166.888462l131.304519-4.258902 95.883484 89.832584 4.258902 131.327791-89.832584 95.860212-131.327791 4.258902-95.883484-89.832584-4.258903-131.327792 89.832585-95.883483zM350.952634 77.336313A460.357086 460.357086 0 0 1 511.999651 48.454905c49.314831 0 97.861662 7.749806 144.38377 23.039963l9.77453 301.21843L350.975907 77.336313zM90.833775 318.511202a466.617439 466.617439 0 0 1 211.8513-220.020013l219.833832 206.009854-431.708404 14.010159z m842.331751 386.978294a466.617439 466.617439 0 0 1-211.851299 220.020013l-219.833832-206.009854 431.708404-14.010159zM975.545095 512.000349c0 49.338103-7.749806 97.884935-23.039963 144.38377l-301.21843 9.77453 295.400257-315.182044A460.333813 460.333813 0 0 1 975.545095 512.000349zM318.510504 933.166225a466.687258 466.687258 0 0 1-220.020013-211.8513l206.009854-219.833832 14.010159 431.708404z m665.249851-620.449923a510.370097 510.370097 0 0 0-109.730735-162.745922 510.13737 510.13737 0 0 0-162.72265-109.707462A508.671191 508.671191 0 0 0 511.999651 0.001164c-69.11989 0-136.145238 13.544706-199.307319 40.261754a510.160643 510.160643 0 0 0-162.722651 109.707462A510.253734 510.253734 0 0 0 0.000465 512.000349c0 69.11989 13.544706 136.145238 40.261755 199.307319a510.207188 510.207188 0 0 0 109.707461 162.745923A510.370097 510.370097 0 0 0 511.999651 1023.999535c69.11989 0 136.168511-13.544706 199.307319-40.261755a510.253734 510.253734 0 0 0 162.72265-109.684189A510.370097 510.370097 0 0 0 1023.998836 512.000349c0-69.11989-13.544706-136.168511-40.261754-199.307319z" fill="#2c2c2c" p-id="45937"></path></svg>