<?xml version="1.0" standalone="no"?><!DOCTYPE svg PUBLIC "-//W3C//DTD SVG 1.1//EN" "http://www.w3.org/Graphics/SVG/1.1/DTD/svg11.dtd"><svg t="1761011901460" class="icon" viewBox="0 0 1024 1024" version="1.1" xmlns="http://www.w3.org/2000/svg" p-id="36511" xmlns:xlink="http://www.w3.org/1999/xlink" width="128" height="128"><path d="M235.265258 570.950623v-83.126232c0.068562-9.803273 2.935865-19.088754 8.302083-27.062356l74.974576-112.345717v-82.034365h-13.681604c-26.898627 0-48.77282-21.874193-48.77282-48.745191V113.728204c0-26.870997 21.874193-48.745191 48.77282-48.74519h416.354639c26.898627 0 48.786123 21.874193 48.786123 48.74519v103.907535c0 26.870997-21.887496 48.745191-48.786123 48.745191h-13.668301v82.034364l75.043137 112.455212c5.284353 7.891737 8.138354 17.121959 8.233522 26.679639v83.399455c0 26.870997-21.887496 48.745191-48.786123 48.745191H284.051381c-26.898627 0.001023-48.786123-21.87317-48.786123-48.744168z m54.793954-79.085196l-0.027629 0.02763s0.014326-0.027629 0.027629-0.02763z m84.409458-253.447362V356.881107a27.987425 27.987425 0 0 1-4.696975 15.511275l-78.579683 117.752868v73.622787h443.704544v-73.622787l-78.579683-117.752868a27.987425 27.987425 0 0 1-4.696975-15.511275V238.418065c0-15.456017 12.521175-27.963888 27.963888-27.963889h34.490536v-89.543386H312.01527v89.543386h34.490535c15.442714 0 27.962865 12.506848 27.962865 27.963889z" fill="#666666" p-id="36512"></path><path d="M485.080907 931.856393V610.874915c0-15.456017 12.521175-27.963888 27.963889-27.963889 15.442714 0 27.963888 12.506848 27.963888 27.963889V931.856393c0 15.456017-12.521175 27.963888-27.963888 27.963889-15.442714-0.001023-27.963888-12.507872-27.963889-27.963889z" fill="#666666" p-id="36513"></path></svg>