<?xml version="1.0" standalone="no"?><!DOCTYPE svg PUBLIC "-//W3C//DTD SVG 1.1//EN" "http://www.w3.org/Graphics/SVG/1.1/DTD/svg11.dtd"><svg t="1761016671392" class="icon" viewBox="0 0 1025 1024" version="1.1" xmlns="http://www.w3.org/2000/svg" p-id="22250" xmlns:xlink="http://www.w3.org/1999/xlink" width="128.125" height="128"><path d="M106.771661 928.32256h-0.08704c-28.89728 0-52.33664-7.20896-71.69536-22.04672-21.5808-16.5376-33.48992-39.36768-34.44736-66.0224l-0.15872-3.91168c-0.58368-14.80704-1.23904-31.58528 4.06528-48.96256 10.83392-35.30752 34.6112-61.27616 70.67648-77.24032 51.93216-23.00416 104.09984-45.48096 156.25728-67.9424l5.38112-2.32448c6.69184-2.88256 13.52704-5.46816 20.36224-8.03328 7.18336-2.72384 14.36672-5.4016 21.32992-8.57088 7.53664-3.43552 9.41568-4.87424 9.87136-5.35552-0.11264 0 0.99328-3.11296 0.58368-15.3856-0.19456-5.41696-2.25792-11.19744-6.30272-17.68448l-8.69376-13.90592c-14.69952-23.49568-29.89056-47.76448-43.89376-72.45312-14.77632-26.05056-25.87136-54.40512-32.9472-84.29568-5.54496-23.38816-6.8608-48.8704-4.00896-77.90592 3.28704-33.35168 11.60704-65.19296 24.73472-94.66368 27.90912-62.58176 67.57376-105.1392 121.26208-130.11456 68.4032-31.81056 138.36288-26.34752 203.17184 15.93344 34.93888 22.80448 62.45376 54.15936 84.13696 95.872 24.64256 47.50336 36.34688 98.70848 34.76992 152.18688-1.0496 36.01408-13.68576 67.92192-24.59136 91.71456-13.1584 28.72832-29.93664 55.02464-45.98272 79.49312-2.816 4.28544-5.70368 8.53504-8.60672 12.7744-6.62528 9.72288-12.88704 18.88768-17.95072 28.32384-5.77536 10.74176-7.86432 21.28896-6.20544 31.41632 10.2656 8.32512 23.68512 13.85984 36.58752 18.80064 22.54848 8.6784 45.14304 17.25952 67.74272 25.8304 37.53984 14.27456 75.0848 28.53376 112.46592 43.19232 41.38496 16.20992 68.16256 46.49472 77.47072 87.56224 4.64384 20.41344 4.64384 41.84064-0.03584 61.91616-5.88288 25.10848-23.54176 57.3952-74.26048 68.76672-8.86272 1.98144-18.5856 2.88768-30.6432 2.90304-67.0976 0.08192-134.21568 0.11776-201.32352 0.11776l-293.34016-0.04096-145.69472 0.05632zM427.329741 147.90144c-20.80256 0-42.23488 5.1712-63.70816 15.39584-40.42752 19.20512-70.70208 52.92032-92.58496 103.05024-10.53184 24.16128-17.2288 50.40128-19.88096 78.0032-2.2528 23.45984-1.36192 42.74176 2.81088 60.70784 5.76512 24.89344 14.76096 48.4608 26.74176 70.02112 12.928 23.31648 27.24864 46.6944 41.08288 69.2992l8.37632 13.69088c8.39168 13.7472 12.70784 27.2128 13.184 41.20064 1.21344 36.17792-8.0896 52.31104-38.2976 66.37056-7.68512 3.57376-15.60576 6.6304-23.5264 9.68704-5.8368 2.26816-11.68384 4.49024-17.408 7.00928l-5.16608 2.2784c-49.90976 21.99552-99.85024 43.96032-149.5552 66.46784-21.46304 9.69728-34.92352 24.50432-41.15456 45.24032-2.7648 9.25696-2.33984 20.35712-1.87392 32.13312l0.1536 3.98848c0.41472 11.76576 4.97664 20.66432 14.35136 28.01152 9.76384 7.63904 22.0416 11.20768 38.65088 11.20768v24.45824l0.04608-24.45824 139.904-0.0512 281.61024 0.03584c64.41472 0 128.80896-0.03584 193.22368-0.11264 7.84384-0.01536 13.75232-0.52224 18.58048-1.61792 25.68704-5.87776 31.92832-19.50208 34.49344-30.68928 2.88256-12.63104 2.87232-26.20928-0.03584-39.23968-5.43744-24.49408-20.08576-41.216-44.81536-51.1232-35.72224-14.31552-71.59296-28.25216-107.47392-42.1632a15211.5456 15211.5456 0 0 1-65.21856-25.42592c-15.79008-6.19008-33.95072-13.91104-49.64352-27.32544-7.79264-6.656-13.52704-16.39424-15.39072-26.05568-4.096-21.21216-0.47616-43.42272 10.46528-64.2048 6.06208-11.51488 13.06624-22.00576 19.84-32.16896 2.61632-3.9168 5.23776-7.82848 7.78752-11.81696 14.40768-22.45632 29.41952-46.46912 40.6784-71.58272 8.59648-19.19488 18.56512-44.65664 19.328-71.37792 1.27488-44.22144-8.17664-86.53824-28.08832-125.76256-16.90112-33.23392-37.92384-57.9328-64.31232-75.53024-27.40224-18.28352-55.38816-27.55072-83.1744-27.55072z m452.87936 222.58688c36.61312 0 73.23648-0.0768 109.8496 0.06656 4.98176 0.01536 10.13248 0.36864 14.91968 1.66912 12.544 3.4304 19.1232 13.2864 18.72384 26.96704-0.39424 13.02528-8.30464 22.6304-21.52448 25.51296-4.56704 0.9728-9.30304 1.37216-13.97248 1.37216-72.73984 0.08192-145.4592 0.10752-218.19392-0.0512-5.632-0.01024-11.50464-0.56832-16.81408-2.29376-12.93824-4.16768-18.73408-14.14144-17.73568-28.60032 0.78848-11.76576 9.07776-21.0176 21.39136-23.40864 4.4032-0.85504 8.99072-1.16224 13.48608-1.1776 36.61824-0.09728 73.24672-0.05632 109.87008-0.05632z m23.31648 184.27904c-28.52864 0-57.07776 0.28672-85.60128-0.19456-7.03488-0.10752-14.50496-1.53088-20.89472-4.33152-10.91584-4.8384-15.3344-16.62464-12.88704-29.94176 2.0224-10.89536 11.09504-18.9184 23.7312-20.70016 3.65056-0.512 7.35232-0.76288 11.02848-0.76288 57.088-0.04608 114.1504-0.09728 171.2384 0.04608 5.46816 0.02048 11.14624 0.5888 16.3584 2.13504 11.18208 3.29728 17.54624 13.52192 17.19296 26.10176-0.32768 13.09184-6.81984 22.39488-18.64704 25.64608-4.95104 1.37216-10.24512 1.88928-15.4112 1.94048-28.69248 0.14848-57.40544 0.06144-86.10816 0.06144z m40.5248 120.99584c-7.72096 0-38.62528 0.06656-69.5296-0.03072-8.9088-0.03584-17.57696-1.4336-24.42752-7.65952-8.92416-8.1408-10.46528-18.4576-7.0912-29.54752 3.50208-11.58144 12.62592-16.3584 23.7824-18.02752 3.47648-0.512 7.03488-0.62464 10.5472-0.62464 37.2736-0.04608 74.55744-0.13824 111.8464 0.08192 6.10304 0.03584 12.4672 0.86016 18.25792 2.7392 10.74688 3.52768 16.1536 12.4672 16.2816 24.6016 0.13312 11.9808-5.25312 21.38624-15.6672 25.09312a58.7008 58.7008 0 0 1-18.16064 3.20512c-19.1488 0.42496-26.69056 0.16896-45.83936 0.16896z" fill="" p-id="22251"></path></svg>