<?xml version="1.0" standalone="no"?><!DOCTYPE svg PUBLIC "-//W3C//DTD SVG 1.1//EN" "http://www.w3.org/Graphics/SVG/1.1/DTD/svg11.dtd"><svg t="1761016650178" class="icon" viewBox="0 0 1024 1024" version="1.1" xmlns="http://www.w3.org/2000/svg" p-id="21104" xmlns:xlink="http://www.w3.org/1999/xlink" width="128" height="128"><path d="M739.10272 370.67776h245.06368c19.2512 0 33.75104 9.7792 33.75104 30.42816 0 20.65408-16.7424 30.43328-35.98848 30.43328h-242.82624c-19.26144 0-34.88256-9.7792-34.88256-30.43328 0-20.64896 15.62624-30.42816 34.88256-30.42816z m278.17472 169.8816c0 20.64896-14.50496 30.43328-33.75104 30.43328h-192.45568c-19.26144 0-34.88256-9.78432-34.88256-30.43328s15.62112-30.42816 34.88256-30.42816h193.57184c19.24608 0 32.63488 9.7792 32.63488 30.42816z m-176.63488 315.48928c0 45.2608-36.7616 72.96-81.9456 72.96H84.91008c-45.184 0-81.9456-27.68896-81.9456-72.96v-19.67104c0-41.48224 30.53568-78.24384 69.51936-92.2368l166.84544-74.37312s45.22496-13.9008 57.60512-27.77088c8.23808-9.2416 10.7776-39.71072 0.33792-59.71456-10.43968-19.9936-94.98112-130.03264-94.98112-222.33088 0-148.84352 97.83808-269.51168 218.5216-269.51168 120.68864 0 218.5216 120.66816 218.5216 269.51168 0 96.36352-94.86336 202.44992-102.66624 228.5568-7.80288 26.10176-8.43264 46.53568 0.37888 55.20896 13.71136 13.47072 48.99328 27.17696 48.99328 27.17696l185.08288 72.12544c38.97856 13.99808 69.51936 51.88608 69.51936 93.35808v19.67104z m143.44192-153.69728h-128.64512c-19.2512 0-34.87744-9.7792-34.87744-30.4384 0-20.64384 15.62624-30.42304 34.87744-30.42304h129.7664c19.25632 0 33.73568 9.77408 33.73568 30.42304 0 20.6592-15.60576 30.4384-34.85696 30.4384z" fill="" p-id="21105"></path></svg>