<?xml version="1.0" standalone="no"?><!DOCTYPE svg PUBLIC "-//W3C//DTD SVG 1.1//EN" "http://www.w3.org/Graphics/SVG/1.1/DTD/svg11.dtd"><svg t="1761033687219" class="icon" viewBox="0 0 1024 1024" version="1.1" xmlns="http://www.w3.org/2000/svg" p-id="68255" xmlns:xlink="http://www.w3.org/1999/xlink" width="256" height="256"><path d="M386.77504 302.44864c21.98528 46.70464 29.73696 94.5152 21.27872 131.18464-6.2976 27.24864-21.38112 47.0016-42.74176 56.14592-2.52928 2.42688-6.08256 6.63552-6.98368 10.5472l-0.1536 0.8192c-0.1536 1.15712-0.0512 2.99008 1.66912 5.79584l1.41312 2.10944a736.52224 736.52224 0 0 0 71.80288 75.68384 741.94944 741.94944 0 0 0 74.76224 60.13952c8.64256 3.67616 13.4144 3.51232 14.90944 2.7648 1.0752-0.512 2.18112-2.58048 2.18112-2.60096 5.08928-19.8656 18.19648-35.65568 37.9904-46.03904 37.29408-19.5584 94.60736-18.28864 153.33376 3.3792 88.70912 32.73728 146.51392 98.29376 135.90528 153.4464l-0.90112 4.0448a59.4944 59.4944 0 0 1-2.5088 7.59808c-6.35904 34.5088-20.736 64.29696-42.63936 88.0128-101.4272 109.76256-329.08288 60.0064-518.27712-113.2544C141.824 608.512 62.54592 437.22752 90.53184 316.0064c7.09632-30.70976 20.7872-57.2416 40.7552-78.83776 21.31968-23.06048 49.50016-38.4 80.47616-49.73568l10.1376-2.8672c54.6304-15.29856 124.5184 32.2048 164.87424 117.88288z m-149.26848-73.80992l-4.95616 1.41312-3.51232 1.0752c-23.87968 7.30112-47.23712 21.0944-63.01696 38.15424-14.30528 15.47264-24.17664 34.77504-29.3888 57.37472-23.90016 103.49568 51.4048 260.02432 183.1424 380.68224 164.06528 150.24128 370.86208 203.38688 451.584 116.02944 16.1792-17.53088 26.75712-40.17152 31.21152-66.56a24.6784 24.6784 0 0 1 1.6896-5.61152c0.45056-0.99328 0.88064-2.01728 1.16736-3.10272 6.31808-27.37152-37.55008-76.22656-105.5744-101.3248-44.97408-16.59904-90.112-18.91328-114.96448-5.87776-10.35264 5.4272-12.92288 11.61216-13.78304 14.5408l-0.768 2.79552c-1.80224 5.8368-8.54016 22.99904-26.86976 31.9488-16.22016 7.91552-35.4816 6.8608-57.20064-3.11296a23.9616 23.9616 0 0 1-3.67616-2.0992A793.41568 793.41568 0 0 1 322.8672 536.82176a23.6032 23.6032 0 0 1-2.70336-4.10624c-8.59136-13.4656-11.33568-28.27264-7.92576-43.03872 5.39648-23.3984 24.73984-38.05184 26.9312-39.64928 1.8944-1.3824 3.9936-2.47808 6.22592-3.24608 9.32864-3.20512 13.90592-13.43488 16.14848-22.08768l0.4096-1.69984c6.0416-26.13248-0.68608-63.66208-17.98144-100.39296-30.14656-64.04096-80.71168-100.89472-106.46528-93.96224zM723.2 194.56c15.90272 0 28.80512 13.12768 28.80512 29.32736v12.1856l26.0096-26.112a19.0464 19.0464 0 0 1 13.4656-5.632h8.51968c10.60864 0 19.2 8.7552 19.2 19.5584v156.65152c0 10.79296-8.6016 19.5584-19.2 19.5584h-8.51968a19.0464 19.0464 0 0 1-13.47584-5.632l-26.0096-26.12224v11.9296c0 16.18944-12.9024 29.32736-28.79488 29.32736H540.79488C524.9024 409.6 512 396.47232 512 380.27264V223.88736C512 207.70816 524.92288 194.56 540.80512 194.56z m-21.38112 31.49824H562.176c-4.05504 0-7.34208 3.64544-7.34208 8.1408v130.3552c0 4.48512 3.28704 8.1408 7.34208 8.1408h139.64288c4.05504 0 7.35232-3.65568 7.35232-8.1408V234.1888c0-4.49536-3.29728-8.1408-7.35232-8.1408z m86.36416 9.76896h-7.6288L742.4 274.67776v46.61248l7.6288 7.7824v0.2048l30.52544 31.0784h7.6288V235.8272z" fill="#2c2c2c" p-id="68256"></path></svg>